<?xml version="1.0" encoding="UTF-8"?>
<svg viewBox="0 0 932 932" xmlns="http://www.w3.org/2000/svg" xmlns:xlink="http://www.w3.org/1999/xlink" role="img" aria-labelledby="svg-logogearspillars-590940-title svg-logogearspillars-590940-desc">
  <title id="svg-logogearspillars-590940-title">About Free Tool Online - the pillars in the gears</title>
  <desc id="svg-logogearspillars-590940-desc">The Free Tool Online logo gears carry what the site stands for: no-upload in-browser tools, 100+ of them free, kept truthful by dated editorial review.</desc>
  <defs>
    <path id="svg-logogearspillars-590940-a1" d="M 137.4,329.3 A 148,148 0 1 1 415.6,329.3"/>
    <path id="svg-logogearspillars-590940-a2" d="M 591.4,523.2 A 114,114 0 1 1 818.6,523.2"/>
    <path id="svg-logogearspillars-590940-a3" d="M 278.5,741.6 A 88,88 0 1 1 454.5,741.6"/>
  </defs>
  <path fill="#FF4D00" d="m60 342c5 17 12 33 20 48l-24 31c-8 10-7 24 2 34l42 42c9 9 24 10 34 2l31-24c16 9 33 16 50 21l5 40c2 13 12 22 25 22h60c13 0 24-10 25-22l4-38c19-5 37-12 54-22l30 24c10 8 24 7 34-2l42-42c9-9 10-24 2-34l-23-29c10-17 17-34 22-53l36-4c13-2 22-12 22-25v-60c0-13-10-24-22-25l-35-4c-5-18-12-36-21-52l22-27c8-10 7-24-2-34l-42-42c-9-9-24-10-34-2l-26 21c-17-10-36-18-55-23l-4-34c-2-13-12-22-25-22h-60c-13 0-24 10-25 22l-4 34c-20 5-39 13-56 24l-28-22c-10-8-24-7-34 2l-42 42c-9 9-10 24-2 34l23 29c-9 17-16 34-21 53l-37 4c-13 2-22 12-22 25v60c0 13 10 24 22 25l39 5zm216-162c54 0 99 44 99 99s-44 99-99 99c-54 0-99-44-99-99s44-99 99-99z" aria-hidden="true"/>
  <path fill="#00436E" d="m867 356-32-27c-10-8-24-8-33 1l-17 16c-15-7-30-12-46-15l-5-24c-2-12-14-21-27-20l-41 4c-13 1-22 11-23 24l-1 24c-16 6-31 14-44 23l-21-14c-11-7-25-5-33 5l-27 32c-8 10-8 24 1 33l18 19c-6 14-11 29-13 44l-26 5c-12 2-21 14-20 27l4 41c1 13 11 22 24 23l28 1c5 13 12 26 20 38l-16 24c-7 11-5 25 5 33l32 27c10 8 24 8 33-1l21-19c14 6 28 11 42 14l6 28c2 12 14 21 27 20l41-4c13-1 22-11 23-24l1-28c15-5 29-12 42-21l23 15c11 7 25 5 33-5l27-32c8-10 8-24-1-33l-18-19c7-14 12-29 14-45l25-5c12-2 21-14 20-27l-4-41c-1-13-11-22-24-23l-25-1c-5-15-12-28-21-41l14-21c7-11 5-25-4-33zm-155 238c-44 4-84-29-87-74-4-44 29-84 74-87 44-4 84 29 87 74 4 44-29 84-74 87z" aria-hidden="true"/>
  <path fill="#3A3A3A" d="m204 704c-13 1-22 12-22 25l-0 25c-0 13 9 24 22 25l19 2c3 11 8 22 13 32l-12 15c-8 10-7 24 2 33l18 18c9 9 23 10 33 2l15-12c10 6 22 11 33 14l2 19c1 13 12 22 25 22l25 0c13 0 24-9 25-22l2-18c13-3 25-8 36-14l14 11c10 8 24 7 33-2l18-18c9-9 10-23 2-33l-11-14c7-11 12-23 15-35l17-2c13-1 22-12 22-25l0-25c0-13-9-24-22-25l-16-2c-3-12-8-24-14-35l10-12c8-10 7-24-2-33l-18-18c-9-9-23-10-33-2l-12 9c-11-7-24-12-36-16l-2-16c-1-13-12-22-25-22l-25-0c-13-0-24 9-25 22l-2 16c-13 3-26 9-38 15l-12-10c-10-8-24-7-33 2l-18 18c-9 9-10 23-2 33l11 14c-6 11-11 23-14 35l-17 2zm163-29c36 0 65 30 65 67-0 36-30 65-67 65-36-0-65-30-65-67 0-36 30-65 67-65z" aria-hidden="true"/>
  <text font-family="-apple-system, BlinkMacSystemFont, 'Segoe UI', sans-serif" font-size="42" font-weight="700" fill="#FFFFFF"><textPath xlink:href="#svg-logogearspillars-590940-a1" startOffset="50%" text-anchor="middle">No upload, in-browser</textPath></text>
  <text font-family="-apple-system, BlinkMacSystemFont, 'Segoe UI', sans-serif" font-size="32" font-weight="700" fill="#FFFFFF"><textPath xlink:href="#svg-logogearspillars-590940-a2" startOffset="50%" text-anchor="middle">100+ free tools</textPath></text>
  <text font-family="-apple-system, BlinkMacSystemFont, 'Segoe UI', sans-serif" font-size="25" font-weight="700" fill="#FFFFFF"><textPath xlink:href="#svg-logogearspillars-590940-a3" startOffset="50%" text-anchor="middle">Kept truthful</textPath></text>
</svg>
