<?xml version="1.0" encoding="UTF-8"?>
<svg viewBox="0 0 64 64" xmlns="http://www.w3.org/2000/svg" role="img" aria-labelledby="svg-minipictogram-ampelosaurus-title svg-minipictogram-ampelosaurus-desc">
  <title id="svg-minipictogram-ampelosaurus-title">Rotate an Ampelosaurus in 3D</title>
  <desc id="svg-minipictogram-ampelosaurus-desc">Rotate the armored French titanosaur in your browser and see published fossil figures beside a person.</desc>
  <rect x="4" y="4" width="56" height="56" rx="12" ry="12" fill="#1C1C1E" aria-hidden="true"/>
  <path d="M 11 44 Q 9 34 17 30 L 23 27 Q 27 24 31 26 Q 37 30 44 33 L 50 35 L 48 40 L 40 37 Q 32 43 22 44 Z" fill="none" stroke="#FFFFFF" stroke-width="2.3" stroke-linejoin="round" aria-hidden="true"/>
  <circle cx="15" cy="31" r="1.6" fill="#7DAFA3" aria-hidden="true"/>
  <path d="M 24 32 m -1.6 0 a 1.6 1.6 0 1 0 3.2 0 a 1.6 1.6 0 1 0 -3.2 0 M 32 34 m -1.6 0 a 1.6 1.6 0 1 0 3.2 0 a 1.6 1.6 0 1 0 -3.2 0 M 40 36 m -1.6 0 a 1.6 1.6 0 1 0 3.2 0 a 1.6 1.6 0 1 0 -3.2 0" fill="#FF4D00" aria-hidden="true"/>
  <text x="32" y="57" text-anchor="middle" font-family="-apple-system, BlinkMacSystemFont, 'Segoe UI', sans-serif" font-size="7" font-weight="700" letter-spacing="0.5" fill="#FFFFFF">FRAN</text>
</svg>
