<?xml version="1.0" encoding="UTF-8"?>
<svg viewBox="0 0 64 64" xmlns="http://www.w3.org/2000/svg" role="img" aria-labelledby="svg-minipictogram-07a8cb-title svg-minipictogram-07a8cb-desc">
  <title id="svg-minipictogram-07a8cb-title">Show a live analog clock in the browser</title>
  <desc id="svg-minipictogram-07a8cb-desc">Live analog clock hands sweep in real time from your device clock. No download, no account.</desc>
  <rect x="4" y="4" width="56" height="56" rx="12" ry="12" fill="#1C1C1E" aria-hidden="true"/>
  <circle cx="32" cy="31" r="18" fill="none" stroke="#FFFFFF" stroke-width="2.5" aria-hidden="true"/>
  <path d="M 32 31 L 32 19 M 32 31 L 42 31" fill="none" stroke="#FFFFFF" stroke-width="3" stroke-linecap="round" aria-hidden="true"/>
  <line x1="32" y1="31" x2="26" y2="21" stroke="#FF4D00" stroke-width="2" stroke-linecap="round" aria-hidden="true"/>
  <path d="M 32 14 m -1.4 0 a 1.4 1.4 0 1 0 2.8 0 a 1.4 1.4 0 1 0 -2.8 0 M 49 31 m -1.4 0 a 1.4 1.4 0 1 0 2.8 0 a 1.4 1.4 0 1 0 -2.8 0 M 32 48 m -1.4 0 a 1.4 1.4 0 1 0 2.8 0 a 1.4 1.4 0 1 0 -2.8 0 M 15 31 m -1.4 0 a 1.4 1.4 0 1 0 2.8 0 a 1.4 1.4 0 1 0 -2.8 0" fill="#7DAFA3" aria-hidden="true"/>
</svg>
