<?xml version="1.0" encoding="UTF-8"?>
<svg viewBox="0 0 64 64" xmlns="http://www.w3.org/2000/svg" role="img" aria-labelledby="svg-minipictogram-cepheidvariable-title svg-minipictogram-cepheidvariable-desc">
  <title id="svg-minipictogram-cepheidvariable-title">Cepheid Variable Star</title>
  <desc id="svg-minipictogram-cepheidvariable-desc">Hub pictogram</desc>
  <rect x="4" y="4" width="56" height="56" rx="12" ry="12" fill="#1C1C1E" aria-hidden="true"/>
  <circle cx="32" cy="22" r="5.5" fill="#FFFFFF"/>
  <path d="M 32 10 L 32 13 M 32 31 L 32 34 M 20 22 L 23 22 M 41 22 L 44 22 M 23.5 13.5 L 25.6 15.6 M 38.4 28.4 L 40.5 30.5 M 40.5 13.5 L 38.4 15.6 M 25.6 28.4 L 23.5 30.5" fill="none" stroke="#FFFFFF" stroke-width="3" stroke-linecap="round"/>
  <path d="M 12 48 Q 16 39, 20 48 Q 23 51, 26 48 Q 30 39, 34 48 Q 37 51, 40 48 Q 44 39, 48 48" fill="none" stroke="#FF4D00" stroke-width="3" stroke-linecap="round"/>
  <text x="32" y="57" text-anchor="middle" font-family="-apple-system, BlinkMacSystemFont, 'Segoe UI', sans-serif" font-size="7" font-weight="700" letter-spacing="0.5" fill="#FFFFFF">PULSE</text>
</svg>
