<?xml version="1.0" encoding="UTF-8"?>
<svg viewBox="0 0 64 64" xmlns="http://www.w3.org/2000/svg" role="img" aria-labelledby="svg-mp-chasmosaurus-title svg-mp-chasmosaurus-desc">
  <title id="svg-mp-chasmosaurus-title">View a Chasmosaurus in 3D</title>
  <desc id="svg-mp-chasmosaurus-desc">Rotate the model, size it against a person, and read real fossil figures.</desc>
  <rect x="4" y="4" width="56" height="56" rx="12" ry="12" fill="#1C1C1E" aria-hidden="true"/>
  <path d="M 46 16 A 18 18 0 0 1 46 48 L 38 48 L 38 40 L 42 40 L 38 36 L 38 28 L 42 28 L 38 24 L 38 16 Z" fill="none" stroke="#7DAFA3" stroke-width="2.2" stroke-linejoin="round" aria-hidden="true"/>
  <path d="M 14 26 L 22 24 L 28 28 L 34 26 L 40 30 L 46 28 L 50 32 L 46 36 L 40 34 L 34 38 L 28 36 L 22 40 L 16 38 L 12 34 Z" fill="none" stroke="#FFFFFF" stroke-width="2.2" stroke-linejoin="round" aria-hidden="true"/>
  <path d="M 44 30 L 52 26 M 44 34 L 54 34 M 20 28 L 14 22" fill="none" stroke="#FFFFFF" stroke-width="1.6" stroke-linecap="round" aria-hidden="true"/>
  <circle cx="22" cy="28" r="2.2" fill="#FF4D00" aria-hidden="true"/>
  <text x="32" y="57" text-anchor="middle" font-family="-apple-system, BlinkMacSystemFont, 'Segoe UI', sans-serif" font-size="7" font-weight="700" letter-spacing="0.5" fill="#FFFFFF">CHAS</text>
</svg>
