<?xml version="1.0" encoding="UTF-8"?>
<svg viewBox="0 0 64 64" xmlns="http://www.w3.org/2000/svg" role="img" aria-labelledby="svg-minipictogram-chiliblastshooter-title svg-minipictogram-chiliblastshooter-desc">
  <title id="svg-minipictogram-chiliblastshooter-title">Shoot veggie waves in a vertical scroller</title>
  <desc id="svg-minipictogram-chiliblastshooter-desc">Move with WASD, auto-fire at waves of veggies, grab spread speed and shield power-ups, and chase combos.</desc>
  <rect x="4" y="4" width="56" height="56" rx="12" ry="12" fill="#1C1C1E" aria-hidden="true"/>
  <path d="M32 8.5 L32 11 M23 13 L23 16.5 M41 13 L41 16.5" fill="none" stroke="#FFFFFF" stroke-width="3" stroke-linecap="round"/>
  <path d="M32 13 C 26 19 24 27 25 35 C 25.5 41 28 45 32 45 C 37 45 39 39 39 31 C 39 24 36.5 17 32 13 Z" fill="#FF4D00"/>
  <path d="M29.5 21 C 28 26 28 32 29.5 37" fill="none" stroke="#FFFFFF" stroke-width="2.5" stroke-linecap="round"/>
  <path d="M29 45 C 28.5 47.5 30.5 49.5 34.5 49.5 C 33 47.5 33 45.5 33.5 44.5 Z" fill="#7DAFA3"/>
  <text x="32" y="57" text-anchor="middle" font-family="-apple-system, BlinkMacSystemFont, 'Segoe UI', sans-serif" font-size="7" font-weight="700" letter-spacing="0.5" fill="#FFFFFF">BLAST</text>
</svg>
