<?xml version="1.0" encoding="UTF-8"?>
<svg viewBox="0 0 64 64" xmlns="http://www.w3.org/2000/svg" role="img" aria-labelledby="svg-minipictogram-citydrive3d-title svg-minipictogram-citydrive3d-desc">
  <title id="svg-minipictogram-citydrive3d-title">Drive an open-world neon city</title>
  <desc id="svg-minipictogram-citydrive3d-desc">Seeded neon night city with traffic, police chases, car damage, and an on-foot mode in the browser.</desc>
  <rect x="4" y="4" width="56" height="56" rx="12" ry="12" fill="#1C1C1E" aria-hidden="true"/>
  <path d="M 10 26 L 10 17 L 16 17 L 16 12 L 23 12 L 23 19 L 29 19 L 29 14 L 36 14 L 36 19 L 42 19 L 42 16 L 48 16 L 48 26 Z" fill="#7DAFA3"/>
  <path d="M 11 42 L 12 37 L 15 35 L 21 34 L 26 29 L 36 29 L 41 34 L 48 36 L 50 38 L 50 42 Z" fill="#FF4D00"/>
  <path d="M 27 33.5 L 29.5 30.5 L 34.5 30.5 L 34.5 33.5 Z" fill="#FFFFFF"/>
  <circle cx="20" cy="42.5" r="4.5" fill="#FFFFFF"/>
  <circle cx="42" cy="42.5" r="4.5" fill="#FFFFFF"/>
  <text x="32" y="57" text-anchor="middle" font-family="-apple-system, BlinkMacSystemFont, 'Segoe UI', sans-serif" font-size="7" font-weight="700" letter-spacing="0.5" fill="#FFFFFF">DRIVE</text>
</svg>
