<?xml version="1.0" encoding="UTF-8"?>
<svg viewBox="0 0 64 64" xmlns="http://www.w3.org/2000/svg" role="img" aria-labelledby="svg-minipictogram-bb2d23-title svg-minipictogram-bb2d23-desc">
  <title id="svg-minipictogram-bb2d23-title">Cosmic Microwave Background 3D Explorer</title>
  <desc id="svg-minipictogram-bb2d23-desc">All-sky temperature map of the 2.7255 K cosmic microwave background</desc>
  <rect x="4" y="4" width="56" height="56" rx="12" ry="12" fill="#1C1C1E" aria-hidden="true"/>
  <ellipse cx="32" cy="31" rx="20" ry="13" fill="none" stroke="#FFFFFF" stroke-width="2.5" aria-hidden="true"/>
  <path d="M 24 26 m -2 0 a 2 2 0 1 0 4 0 a 2 2 0 1 0 -4 0 M 38 34 m -2.4 0 a 2.4 2.4 0 1 0 4.8 0 a 2.4 2.4 0 1 0 -4.8 0 M 30 37 m -1.6 0 a 1.6 1.6 0 1 0 3.2 0 a 1.6 1.6 0 1 0 -3.2 0" fill="#FF4D00" aria-hidden="true"/>
  <path d="M 40 24 m -1.8 0 a 1.8 1.8 0 1 0 3.6 0 a 1.8 1.8 0 1 0 -3.6 0 M 22 35 m -2 0 a 2 2 0 1 0 4 0 a 2 2 0 1 0 -4 0" fill="#7DAFA3" aria-hidden="true"/>
  <text x="32" y="57" text-anchor="middle" font-family="-apple-system, BlinkMacSystemFont, 'Segoe UI', sans-serif" font-size="7" font-weight="700" letter-spacing="0.5" fill="#FFFFFF">CMB</text>
</svg>
