<svg viewBox="0 0 64 64" xmlns="http://www.w3.org/2000/svg" role="img" aria-labelledby="svg-minipictogram-csvtojsonconverter-title svg-minipictogram-csvtojsonconverter-desc">
  <title id="svg-minipictogram-csvtojsonconverter-title">CSV to JSON Converter</title>
  <desc id="svg-minipictogram-csvtojsonconverter-desc">A small data table converting into curly-brace JSON, with an arrow between them</desc>
  <rect x="4" y="4" width="56" height="56" rx="12" ry="12" fill="#1C1C1E" aria-hidden="true"/>
  <rect x="9" y="19" width="14" height="22" rx="2" ry="2" fill="none" stroke="#FFFFFF" stroke-width="3"/>
  <path d="M9 30 L23 30 M16 19 L16 41" fill="none" stroke="#FFFFFF" stroke-width="2.5" stroke-linecap="round"/>
  <path d="M26 30 L35 30 M31 26 L35 30 L31 34" fill="none" stroke="#7DAFA3" stroke-width="3" stroke-linecap="round" stroke-linejoin="round"/>
  <path d="M43 19 C 40.5 19, 40.5 23, 40.5 26 C 40.5 28.5, 39 29.5, 37.5 30 C 39 30.5, 40.5 31.5, 40.5 34 C 40.5 37, 40.5 41, 43 41" fill="none" stroke="#FFFFFF" stroke-width="3" stroke-linecap="round" stroke-linejoin="round"/>
  <path d="M45 19 C 47.5 19, 47.5 23, 47.5 26 C 47.5 28.5, 49 29.5, 50.5 30 C 49 30.5, 47.5 31.5, 47.5 34 C 47.5 37, 47.5 41, 45 41" fill="none" stroke="#FFFFFF" stroke-width="3" stroke-linecap="round" stroke-linejoin="round"/>
</svg>
