<?xml version="1.0" encoding="UTF-8"?>
<svg viewBox="0 0 64 64" xmlns="http://www.w3.org/2000/svg" role="img" aria-labelledby="svg-minipictogram-developertools-title svg-minipictogram-developertools-desc">
  <title id="svg-minipictogram-developertools-title">Developer tools - JSON, minify, diff, hashes</title>
  <desc id="svg-minipictogram-developertools-desc">Directory of developer tools: format and validate JSON, minify code, diff text, compute hashes, encode and decode in the browser.</desc>
  <rect x="4" y="4" width="56" height="56" rx="12" ry="12" fill="#3C3C3E" aria-hidden="true"/>
  <path d="M22 13 Q16 13 16 19 L16 26 Q16 31 12 31 Q16 31 16 36 L16 43 Q16 49 22 49" fill="none" stroke="#FFFFFF" stroke-width="3.5" stroke-linecap="round" stroke-linejoin="round"/>
  <path d="M42 13 Q48 13 48 19 L48 26 Q48 31 52 31 Q48 31 48 36 L48 43 Q48 49 42 49" fill="none" stroke="#FFFFFF" stroke-width="3.5" stroke-linecap="round" stroke-linejoin="round"/>
  <path d="M29 24 L25 31 L29 38" fill="none" stroke="#FF4D00" stroke-width="3" stroke-linecap="round" stroke-linejoin="round"/>
  <path d="M35 24 L39 31 L35 38" fill="none" stroke="#FF4D00" stroke-width="3" stroke-linecap="round" stroke-linejoin="round"/>
  <text x="32" y="57" text-anchor="middle" font-family="-apple-system, BlinkMacSystemFont, 'Segoe UI', sans-serif" font-size="7" font-weight="700" letter-spacing="0.5" fill="#FFFFFF">DEV</text>
</svg>
