<?xml version="1.0" encoding="UTF-8"?>
<svg viewBox="0 0 64 64" xmlns="http://www.w3.org/2000/svg" role="img" aria-labelledby="svg-minipictogram-a5f40d-title svg-minipictogram-a5f40d-desc">
  <title id="svg-minipictogram-a5f40d-title">Roll virtual dice online</title>
  <desc id="svg-minipictogram-a5f40d-desc">Roll 1 to 10 dice and get a fair random result in your browser. No install, no account.</desc>
  <rect x="4" y="4" width="56" height="56" rx="12" ry="12" fill="#1C1C1E" aria-hidden="true"/>
  <rect x="16" y="14" width="24" height="24" rx="4" fill="none" stroke="#FFFFFF" stroke-width="2.5" aria-hidden="true"/>
  <path d="M 22 20 m -1.8 0 a 1.8 1.8 0 1 0 3.6 0 a 1.8 1.8 0 1 0 -3.6 0 M 34 20 m -1.8 0 a 1.8 1.8 0 1 0 3.6 0 a 1.8 1.8 0 1 0 -3.6 0 M 28 26 m -1.8 0 a 1.8 1.8 0 1 0 3.6 0 a 1.8 1.8 0 1 0 -3.6 0 M 22 32 m -1.8 0 a 1.8 1.8 0 1 0 3.6 0 a 1.8 1.8 0 1 0 -3.6 0 M 34 32 m -1.8 0 a 1.8 1.8 0 1 0 3.6 0 a 1.8 1.8 0 1 0 -3.6 0" fill="#FF4D00" aria-hidden="true"/>
  <rect x="35" y="33" width="15" height="15" rx="3" fill="none" stroke="#7DAFA3" stroke-width="2" aria-hidden="true"/>
  <circle cx="42.5" cy="40.5" r="1.8" fill="#7DAFA3" aria-hidden="true"/>
</svg>
