<?xml version="1.0" encoding="UTF-8"?>
<svg viewBox="0 0 64 64" xmlns="http://www.w3.org/2000/svg" role="img" aria-labelledby="svg-minipictogram-f7b702-title svg-minipictogram-f7b702-desc">
  <title id="svg-minipictogram-f7b702-title">Show a large live digital clock</title>
  <desc id="svg-minipictogram-f7b702-desc">Large HH:MM:SS digital readout with today date, right in your browser. No install, no account.</desc>
  <rect x="4" y="4" width="56" height="56" rx="12" ry="12" fill="#1C1C1E" aria-hidden="true"/>
  <rect x="10" y="20" width="44" height="22" rx="3" fill="none" stroke="#FFFFFF" stroke-width="2.2" aria-hidden="true"/>
  <path d="M 16 26 L 16 36 M 16 31 L 22 31 M 22 26 L 22 36" fill="none" stroke="#7DAFA3" stroke-width="2.5" stroke-linecap="round" aria-hidden="true"/>
  <path d="M 30 26 m -1.4 0 a 1.4 1.4 0 1 0 2.8 0 a 1.4 1.4 0 1 0 -2.8 0 M 30 36 m -1.4 0 a 1.4 1.4 0 1 0 2.8 0 a 1.4 1.4 0 1 0 -2.8 0" fill="#FF4D00" aria-hidden="true"/>
  <path d="M 38 26 L 38 36 M 38 31 L 44 31 M 44 26 L 44 36" fill="none" stroke="#7DAFA3" stroke-width="2.5" stroke-linecap="round" aria-hidden="true"/>
</svg>
