<?xml version="1.0" encoding="UTF-8"?>
<svg viewBox="0 0 64 64" xmlns="http://www.w3.org/2000/svg" role="img" aria-labelledby="svg-minipictogram-dinosaur3d-title svg-minipictogram-dinosaur3d-desc">
  <title id="svg-minipictogram-dinosaur3d-title">Dinosaur 3D viewers - view species in your browser</title>
  <desc id="svg-minipictogram-dinosaur3d-desc">Directory of 3D dinosaur viewers: rotate and inspect species like T. rex and more in the browser.</desc>
  <rect x="4" y="4" width="56" height="56" rx="12" ry="12" fill="#3C3C3E" aria-hidden="true"/>
  <path d="M12 17 C11 12 18 11 19 16 C21 24 27 26 33 27 C40 28 46 31 50 44 L46 45 C44 39 40 38 37 38 L37 47 L33 47 L32 38 C29 40 26 39 24 38 L23 47 L19 47 L19 37 C16 33 15 27 15 24 C14 21 13 19 12 17 Z" fill="#B3C5B0"/>
  <circle cx="16" cy="15" r="1.3" fill="#3C3C3E"/>
  <text x="32" y="57" text-anchor="middle" font-family="-apple-system, BlinkMacSystemFont, 'Segoe UI', sans-serif" font-size="7" font-weight="700" letter-spacing="0.5" fill="#FFFFFF">3D</text>
</svg>
