<?xml version="1.0" encoding="UTF-8"?>
<svg viewBox="0 0 64 64" xmlns="http://www.w3.org/2000/svg" role="img" aria-labelledby="svg-minipictogram-85c97c-title svg-minipictogram-85c97c-desc">
  <title id="svg-minipictogram-85c97c-title">Expanding Universe</title>
  <desc id="svg-minipictogram-85c97c-desc">Hub pictogram</desc>
  <rect x="4" y="4" width="56" height="56" rx="12" ry="12" fill="#1C1C1E" aria-hidden="true"/>
  <circle cx="32" cy="31" r="3.5" fill="#FFFFFF" aria-hidden="true"/>
  <path d="M 32 31 L 18 17 M 32 31 L 46 17 M 32 31 L 18 45 M 32 31 L 46 45" fill="none" stroke="#FF4D00" stroke-width="3" stroke-linecap="round" aria-hidden="true"/>
  <path d="M 15 14 m -2 0 a 2 2 0 1 0 4 0 a 2 2 0 1 0 -4 0 M 49 14 m -2 0 a 2 2 0 1 0 4 0 a 2 2 0 1 0 -4 0 M 15 48 m -2 0 a 2 2 0 1 0 4 0 a 2 2 0 1 0 -4 0 M 49 48 m -2 0 a 2 2 0 1 0 4 0 a 2 2 0 1 0 -4 0" fill="#FFFFFF" aria-hidden="true"/>
  <text x="32" y="57" text-anchor="middle" font-family="-apple-system, BlinkMacSystemFont, 'Segoe UI', sans-serif" font-size="7" font-weight="700" letter-spacing="0.5" fill="#FFFFFF">3D</text>
</svg>
