<?xml version="1.0" encoding="UTF-8"?>
<svg viewBox="0 0 64 64" xmlns="http://www.w3.org/2000/svg" role="img" aria-labelledby="svg-minipictogram-gardendefense-title svg-minipictogram-gardendefense-desc">
  <title id="svg-minipictogram-gardendefense-title">Defend garden lanes in the browser</title>
  <desc id="svg-minipictogram-gardendefense-desc">Pick a defender card - Shooter, Battery, or Wall - then tap a cell to plant it and hold the lanes.</desc>
  <rect x="4" y="4" width="56" height="56" rx="12" ry="12" fill="#00436E" aria-hidden="true"/>
  <path d="M32 12 L46 17 L46 29 C46 39.5 40.5 46.5 32 50 C23.5 46.5 18 39.5 18 29 L18 17 Z" fill="none" stroke="#FFFFFF" stroke-width="3" stroke-linejoin="round"/>
  <path d="M32 44 L32 31" fill="none" stroke="#B3C5B0" stroke-width="3" stroke-linecap="round"/>
  <path d="M32 37 C31 31 26 28 21 28 C21 33 26 37 32 37 Z" fill="#B3C5B0"/>
  <path d="M32 32 C33 26 38 23 43 23 C43 28 38 32 32 32 Z" fill="#B3C5B0"/>
  <circle cx="48" cy="12.5" r="3" fill="#FF4D00"/>
  <text x="32" y="57" text-anchor="middle" font-family="-apple-system, BlinkMacSystemFont, 'Segoe UI', sans-serif" font-size="7" font-weight="700" letter-spacing="0.5" fill="#FFFFFF">PLANT</text>
</svg>
