<?xml version="1.0" encoding="UTF-8"?>
<svg viewBox="0 0 64 64" xmlns="http://www.w3.org/2000/svg" role="img" aria-labelledby="svg-minipictogram-gorgonops-title svg-minipictogram-gorgonops-desc">
  <title id="svg-minipictogram-gorgonops-title">Gorgonops</title>
  <desc id="svg-minipictogram-gorgonops-desc">Late Permian saber-toothed gorgonopsian therapsid</desc>
  <rect x="4" y="4" width="56" height="56" rx="12" ry="12" fill="#1C1C1E" aria-hidden="true"/>
  <path d="M 12 40 C 16 32 24 30 34 31 L 46 30 L 44 34 L 36 35 C 30 36 24 38 20 42 Z" fill="#D9C7A3" stroke="#FFFFFF" stroke-width="1.6" stroke-linejoin="round" aria-hidden="true"/>
  <path d="M 46 30 L 52 27 L 50 33 L 45 35 Z" fill="#D9C7A3" stroke="#FFFFFF" stroke-width="1.6" stroke-linejoin="round" aria-hidden="true"/>
  <path d="M 50 30 L 52 37 M 47 32 L 48 38" stroke="#FF4D00" stroke-width="2" stroke-linecap="round" aria-hidden="true"/>
  <circle cx="49" cy="28.5" r="1.4" fill="#FFFFFF" aria-hidden="true"/>
  <path d="M 14 42 L 12 47 M 20 43 L 19 48 M 30 37 L 29 43 M 37 35 L 37 41" stroke="#FFFFFF" stroke-width="2" stroke-linecap="round" aria-hidden="true"/>
  <text x="32" y="57" text-anchor="middle" font-family="-apple-system, BlinkMacSystemFont, 'Segoe UI', sans-serif" font-size="7" font-weight="700" letter-spacing="0.5" fill="#FFFFFF">PERM</text>
</svg>
