<?xml version="1.0" encoding="UTF-8"?>
<svg viewBox="0 0 64 64" xmlns="http://www.w3.org/2000/svg" role="img" aria-labelledby="svg-minipictogram-id7ziprar5motwbypass-title svg-minipictogram-id7ziprar5motwbypass-desc">
  <title id="svg-minipictogram-id7ziprar5motwbypass-title">Celah 7-Zip bisa melewati peringatan Mark-of-the-Web</title>
  <desc id="svg-minipictogram-id7ziprar5motwbypass-desc">Arsip RAR5 yang dibuat khusus membuat 7-Zip sampai 26.02 menghapus Mark-of-the-Web, jadi file hasil ekstrak bisa lolos SmartScreen. CVE-2026-58052, belum ditambal.</desc>
  <rect x="4" y="4" width="56" height="56" rx="12" ry="12" fill="#1C1C1E" aria-hidden="true"/>
  <path d="M 10 16 L 28 16 L 28 20 L 32 20 L 32 24 L 28 24 L 28 28 L 32 28 L 32 32 L 28 32 L 28 36 L 32 36 L 32 40 L 28 40 L 28 44 L 10 44 Z" fill="none" stroke="#FFFFFF" stroke-width="2.2" stroke-linejoin="round" aria-hidden="true"/>
  <path d="M 42 16 L 52 20 L 52 32 Q 52 42 42 46 Q 32 42 32 32 L 32 20 Z" fill="none" stroke="#7DAFA3" stroke-width="2" stroke-linejoin="round" aria-hidden="true"/>
  <line x1="30" y1="14" x2="54" y2="48" stroke="#FF4D00" stroke-width="2.6" stroke-linecap="round" aria-hidden="true"/>
  <text x="32" y="57" text-anchor="middle" font-family="-apple-system, BlinkMacSystemFont, 'Segoe UI', sans-serif" font-size="7" font-weight="700" letter-spacing="0.5" fill="#FFFFFF">RAR5</text>
</svg>
