<?xml version="1.0" encoding="UTF-8"?>
<svg viewBox="0 0 64 64" xmlns="http://www.w3.org/2000/svg" role="img" aria-labelledby="svg-minipictogram-infernosoulwalker-title svg-minipictogram-infernosoulwalker-desc">
  <title id="svg-minipictogram-infernosoulwalker-title">Collect lost souls in an inferno maze</title>
  <desc id="svg-minipictogram-infernosoulwalker-desc">First-person WebGL maze through infernal halls, collect 13 lost souls, and pull levers.</desc>
  <rect x="4" y="4" width="56" height="56" rx="12" ry="12" fill="#1C1C1E" aria-hidden="true"/>
  <path d="M17,50 Q18,42 22,38 Q23,44 26,45 Q27,39 32,36 Q37,39 38,45 Q41,44 42,38 Q46,42 47,50 Z" fill="#FF4D00"/>
  <path d="M22,34 L22,24 A10,10 0 0 1 42,24 L42,34 L38.7,31 L35.3,34 L32,31 L28.7,34 L25.3,31 Z" fill="#FFFFFF"/>
  <circle cx="27.5" cy="23" r="2.2" fill="#1C1C1E"/>
  <circle cx="36.5" cy="23" r="2.2" fill="#1C1C1E"/>
  <text x="32" y="57" text-anchor="middle" font-family="-apple-system, BlinkMacSystemFont, 'Segoe UI', sans-serif" font-size="7" font-weight="700" letter-spacing="0.5" fill="#FFFFFF">SOULS</text>
</svg>
