<?xml version="1.0" encoding="UTF-8"?>
<svg viewBox="0 0 64 64" xmlns="http://www.w3.org/2000/svg" role="img" aria-labelledby="svg-minipictogram-19d75b-title svg-minipictogram-19d75b-desc">
  <title id="svg-minipictogram-19d75b-title">Parse and format JSON in a tree</title>
  <desc id="svg-minipictogram-19d75b-desc">Paste JSON to validate, format, and view it in a tree.</desc>
  <rect x="4" y="4" width="56" height="56" rx="12" ry="12" fill="#1C1C1E" aria-hidden="true"/>
  <path d="M 18 14 Q 12 14 12 20 L 12 26 Q 12 30 9 31 Q 12 32 12 36 L 12 42 Q 12 48 18 48" fill="none" stroke="#FFFFFF" stroke-width="2.5" stroke-linecap="round" aria-hidden="true"/>
  <path d="M 46 14 Q 52 14 52 20 L 52 26 Q 52 30 51 31 Q 52 32 52 36 L 52 42 Q 52 48 46 48" fill="none" stroke="#FFFFFF" stroke-width="2.5" stroke-linecap="round" aria-hidden="true"/>
  <path d="M 24 26 L 30 26 M 30 26 L 30 31 M 30 26 L 36 31 M 30 31 L 25 36 M 30 31 L 35 36" fill="none" stroke="#FF4D00" stroke-width="2" stroke-linecap="round" aria-hidden="true"/>
  <text x="32" y="57" text-anchor="middle" font-family="-apple-system, BlinkMacSystemFont, 'Segoe UI', sans-serif" font-size="7" font-weight="700" letter-spacing="0.5" fill="#FFFFFF">JSON</text>
</svg>
