<?xml version="1.0" encoding="UTF-8"?>
<svg viewBox="0 0 64 64" xmlns="http://www.w3.org/2000/svg" role="img" aria-labelledby="svg-minipictogram-9b4704-title svg-minipictogram-9b4704-desc">
  <title id="svg-minipictogram-9b4704-title">Kirkwood Gaps 3D Explorer</title>
  <desc id="svg-minipictogram-9b4704-desc">Resonance gaps swept through the asteroid belt by Jupiter</desc>
  <rect x="4" y="4" width="56" height="56" rx="12" ry="12" fill="#1C1C1E" aria-hidden="true"/>
  <circle cx="32" cy="31" r="17" fill="none" stroke="#FFFFFF" stroke-width="2.5" aria-hidden="true"/>
  <circle cx="49" cy="31" r="3" fill="#FF4D00" aria-hidden="true"/>
  <path d="M 32 14 m -1.6 0 a 1.6 1.6 0 1 0 3.2 0 a 1.6 1.6 0 1 0 -3.2 0 M 20.5 19.5 m -1.6 0 a 1.6 1.6 0 1 0 3.2 0 a 1.6 1.6 0 1 0 -3.2 0 M 15 31 m -1.6 0 a 1.6 1.6 0 1 0 3.2 0 a 1.6 1.6 0 1 0 -3.2 0 M 20.5 42.5 m -1.6 0 a 1.6 1.6 0 1 0 3.2 0 a 1.6 1.6 0 1 0 -3.2 0 M 32 48 m -1.6 0 a 1.6 1.6 0 1 0 3.2 0 a 1.6 1.6 0 1 0 -3.2 0" fill="#7DAFA3" aria-hidden="true"/>
  <text x="32" y="57" text-anchor="middle" font-family="-apple-system, BlinkMacSystemFont, 'Segoe UI', sans-serif" font-size="7" font-weight="700" letter-spacing="0.5" fill="#FFFFFF">GAP</text>
</svg>
