<?xml version="1.0" encoding="UTF-8"?>
<svg viewBox="0 0 64 64" xmlns="http://www.w3.org/2000/svg" role="img" aria-labelledby="svg-minipictogram-lagrangepoints-title svg-minipictogram-lagrangepoints-desc">
  <title id="svg-minipictogram-lagrangepoints-title">Explore Lagrange points in 3D</title>
  <desc id="svg-minipictogram-lagrangepoints-desc">Explore Sun-Earth Lagrange points in 3D.</desc>
  <rect x="4" y="4" width="56" height="56" rx="12" ry="12" fill="#1C1C1E" aria-hidden="true"/>
  <circle cx="29" cy="31" r="15" fill="none" stroke="#7DAFA3" stroke-width="2.5"/>
  <circle cx="29" cy="31" r="5.5" fill="#FF4D00"/>
  <circle cx="44" cy="31" r="3" fill="#FFFFFF"/>
  <path d="M 35.5 31 a 2 2 0 1 0 4 0 a 2 2 0 1 0 -4 0 M 47.8 31 a 2 2 0 1 0 4 0 a 2 2 0 1 0 -4 0 M 12 31 a 2 2 0 1 0 4 0 a 2 2 0 1 0 -4 0 M 34.5 18 a 2 2 0 1 0 4 0 a 2 2 0 1 0 -4 0 M 34.5 44 a 2 2 0 1 0 4 0 a 2 2 0 1 0 -4 0 Z" fill="#FFFFFF"/>
  <text x="32" y="57" text-anchor="middle" font-family="-apple-system, BlinkMacSystemFont, 'Segoe UI', sans-serif" font-size="7" font-weight="700" letter-spacing="0.5" fill="#FFFFFF">L1-L5</text>
</svg>
