<?xml version="1.0" encoding="UTF-8"?>
<svg viewBox="0 0 64 64" xmlns="http://www.w3.org/2000/svg" role="img" aria-labelledby="svg-minipictogram-a4246e-title svg-minipictogram-a4246e-desc">
  <title id="svg-minipictogram-a4246e-title">Live mic waveform meter and permission check</title>
  <desc id="svg-minipictogram-a4246e-desc">Live waveform meter, mic permission check, and optional speaker loopback in your browser. No recording, no upload.</desc>
  <rect x="4" y="4" width="56" height="56" rx="12" ry="12" fill="#1C1C1E" aria-hidden="true"/>
  <path d="M 24 12 Q 24 8 32 8 Q 40 8 40 12 L 40 24 Q 40 32 32 32 Q 24 32 24 24 Z" fill="none" stroke="#FFFFFF" stroke-width="2.2" stroke-linejoin="round" aria-hidden="true"/>
  <path d="M 18 24 Q 18 36 32 36 Q 46 36 46 24" fill="none" stroke="#FFFFFF" stroke-width="2.2" stroke-linecap="round" aria-hidden="true"/>
  <line x1="32" y1="36" x2="32" y2="41" stroke="#FFFFFF" stroke-width="2.2" stroke-linecap="round" aria-hidden="true"/>
  <path d="M 16 50 L 16 46 M 24 50 L 24 42 M 32 50 L 32 46 M 40 50 L 40 40 M 48 50 L 48 46" fill="none" stroke="#FF4D00" stroke-width="2.2" stroke-linecap="round" aria-hidden="true"/>
  <text x="32" y="59" text-anchor="middle" font-family="-apple-system, BlinkMacSystemFont, 'Segoe UI', sans-serif" font-size="6.5" font-weight="700" letter-spacing="0.5" fill="#FFFFFF">MIC</text>
</svg>
