<?xml version="1.0" encoding="UTF-8"?>
<svg viewBox="0 0 64 64" xmlns="http://www.w3.org/2000/svg" role="img" aria-labelledby="svg-minipictogram-4943fd-title svg-minipictogram-4943fd-desc">
  <title id="svg-minipictogram-4943fd-title">Moon Libration 3D Explorer</title>
  <desc id="svg-minipictogram-4943fd-desc">The wobble that reveals 59 percent of the Moon from Earth</desc>
  <rect x="4" y="4" width="56" height="56" rx="12" ry="12" fill="#1C1C1E" aria-hidden="true"/>
  <circle cx="32" cy="31" r="15" fill="none" stroke="#FFFFFF" stroke-width="2.5" aria-hidden="true"/>
  <path d="M 32 12 A 20 20 0 0 1 45 22 M 45 22 L 40 21 M 45 22 L 44 27" fill="none" stroke="#FF4D00" stroke-width="2.5" stroke-linecap="round" stroke-linejoin="round" aria-hidden="true"/>
  <path d="M 26 26 m -2 0 a 2 2 0 1 0 4 0 a 2 2 0 1 0 -4 0 M 36 36 m -2.6 0 a 2.6 2.6 0 1 0 5.2 0 a 2.6 2.6 0 1 0 -5.2 0" fill="#7DAFA3" aria-hidden="true"/>
  <text x="32" y="57" text-anchor="middle" font-family="-apple-system, BlinkMacSystemFont, 'Segoe UI', sans-serif" font-size="7" font-weight="700" letter-spacing="0.5" fill="#FFFFFF">59%</text>
</svg>
