<?xml version="1.0" encoding="UTF-8"?>
<svg viewBox="0 0 64 64" xmlns="http://www.w3.org/2000/svg" role="img" aria-labelledby="svg-minipictogram-neoncatchase-title svg-minipictogram-neoncatchase-desc">
  <title id="svg-minipictogram-neoncatchase-title">Chase cheese and dodge dogs</title>
  <desc id="svg-minipictogram-neoncatchase-desc">Collect cheese, dodge dogs, and survive with nine lives across neon levels.</desc>
  <rect x="4" y="4" width="56" height="56" rx="12" ry="12" fill="#1C1C1E" aria-hidden="true"/>
  <path d="M 20.5 25 L 19 12 L 29.5 17.5 Q 32 16.5 34.5 17.5 L 45 12 L 43.5 25 Q 46 28.5 46 33 Q 46 46 32 46 Q 18 46 18 33 Q 18 28.5 20.5 25 Z" fill="none" stroke="#FF4D00" stroke-width="3" stroke-linecap="round" stroke-linejoin="round"/>
  <circle cx="26.5" cy="30" r="2" fill="#FFFFFF"/>
  <circle cx="37.5" cy="30" r="2" fill="#FFFFFF"/>
  <polygon points="29.5,35 34.5,35 32,39" fill="#D9C7A3"/>
  <path d="M 13.5 29.5 L 17 31 M 13.5 36 L 17 35 M 50.5 29.5 L 47 31 M 50.5 36 L 47 35" fill="none" stroke="#FFFFFF" stroke-width="2.5" stroke-linecap="round"/>
  <text x="32" y="57" text-anchor="middle" font-family="-apple-system, BlinkMacSystemFont, 'Segoe UI', sans-serif" font-size="7" font-weight="700" letter-spacing="0.5" fill="#FFFFFF">CHASE</text>
</svg>
