<?xml version="1.0" encoding="UTF-8"?>
<svg viewBox="0 0 64 64" xmlns="http://www.w3.org/2000/svg" role="img" aria-labelledby="svg-minipictogram-nightswarmsurvivor-title svg-minipictogram-nightswarmsurvivor-desc">
  <title id="svg-minipictogram-nightswarmsurvivor-title">Survive a night horde roguelite</title>
  <desc id="svg-minipictogram-nightswarmsurvivor-desc">Horde roguelite: WASD or touch move, auto weapons, XP level-ups, stage bosses, and achievements.</desc>
  <rect x="4" y="4" width="56" height="56" rx="12" ry="12" fill="#1C1C1E" aria-hidden="true"/>
  <circle cx="42" cy="15" r="6.5" fill="#D9C7A3"/>
  <circle cx="45" cy="14" r="5.5" fill="#1C1C1E"/>
  <circle cx="27" cy="28.5" r="3.5" fill="#FFFFFF"/>
  <polygon points="21,44 33,44 27,32" fill="#FFFFFF"/>
  <path d="M 21.4 13 L 24 10.4 L 26.6 13 L 24 15.6 Z M 11.4 22 L 14 19.4 L 16.6 22 L 14 24.6 Z M 8.4 35 L 11 32.4 L 13.6 35 L 11 37.6 Z M 14.4 47 L 17 44.4 L 19.6 47 L 17 49.6 Z M 37.4 45 L 40 42.4 L 42.6 45 L 40 47.6 Z M 44.4 31 L 47 28.4 L 49.6 31 L 47 33.6 Z" fill="#FF4D00"/>
  <text x="32" y="57" text-anchor="middle" font-family="-apple-system, BlinkMacSystemFont, 'Segoe UI', sans-serif" font-size="7" font-weight="700" letter-spacing="0.5" fill="#FFFFFF">HORDE</text>
</svg>
