<?xml version="1.0" encoding="UTF-8"?>
<svg viewBox="0 0 64 64" xmlns="http://www.w3.org/2000/svg" role="img" aria-labelledby="svg-minipictogram-orbitalresonance-title svg-minipictogram-orbitalresonance-desc">
  <title id="svg-minipictogram-orbitalresonance-title">Watch orbital resonance in 3D</title>
  <desc id="svg-minipictogram-orbitalresonance-desc">Watch Io Europa Ganymede Laplace 1:2:4 orbital resonance in 3D.</desc>
  <rect x="4" y="4" width="56" height="56" rx="12" ry="12" fill="#1C1C1E" aria-hidden="true"/>
  <circle cx="32" cy="31" r="8" fill="none" stroke="#FFFFFF" stroke-width="2.5"/>
  <circle cx="32" cy="31" r="13.5" fill="none" stroke="#FFFFFF" stroke-width="2.5"/>
  <circle cx="32" cy="31" r="18.5" fill="none" stroke="#FFFFFF" stroke-width="2.5"/>
  <circle cx="32" cy="31" r="4" fill="#D9C7A3"/>
  <path d="M 40,31 m -2.8,0 a 2.8,2.8 0 1,0 5.6,0 a 2.8,2.8 0 1,0 -5.6,0 Z M 23.3,20.7 m -2.8,0 a 2.8,2.8 0 1,0 5.6,0 a 2.8,2.8 0 1,0 -5.6,0 Z M 42.6,46.2 m -2.8,0 a 2.8,2.8 0 1,0 5.6,0 a 2.8,2.8 0 1,0 -5.6,0 Z" fill="#FF4D00"/>
  <text x="32" y="57" text-anchor="middle" font-family="-apple-system, BlinkMacSystemFont, 'Segoe UI', sans-serif" font-size="7" font-weight="700" letter-spacing="0.5" fill="#FFFFFF">1:2:4</text>
</svg>
