<?xml version="1.0" encoding="UTF-8"?>
<svg viewBox="0 0 64 64" xmlns="http://www.w3.org/2000/svg" role="img" aria-labelledby="svg-minipictogram-organizepdfpages-title svg-minipictogram-organizepdfpages-desc">
  <title id="svg-minipictogram-organizepdfpages-title">Reorder PDF pages</title>
  <desc id="svg-minipictogram-organizepdfpages-desc">Type a new page order and download the reorganized PDF, right in the browser.</desc>
  <rect x="4" y="4" width="56" height="56" rx="12" ry="12" fill="#1C1C1E" aria-hidden="true"/>
  <path d="M 8 30 L 16 30 L 19 33 L 19 52 L 8 52 Z" fill="none" stroke="#FFFFFF" stroke-width="2.4" stroke-linejoin="round" aria-hidden="true"/>
  <path d="M 16 30 L 16 33 L 19 33" fill="none" stroke="#FFFFFF" stroke-width="2.4" stroke-linejoin="round" aria-hidden="true"/>
  <path d="M 24 14 L 32 14 L 35 17 L 35 36 L 24 36 Z" fill="none" stroke="#7DAFA3" stroke-width="2.6" stroke-linejoin="round" aria-hidden="true"/>
  <path d="M 32 14 L 32 17 L 35 17" fill="none" stroke="#7DAFA3" stroke-width="2.6" stroke-linejoin="round" aria-hidden="true"/>
  <path d="M 40 24 L 48 24 L 51 27 L 51 46 L 40 46 Z" fill="none" stroke="#FFFFFF" stroke-width="2.4" stroke-linejoin="round" aria-hidden="true"/>
  <path d="M 48 24 L 48 27 L 51 27" fill="none" stroke="#FFFFFF" stroke-width="2.4" stroke-linejoin="round" aria-hidden="true"/>
  <path d="M 14 22 Q 24 6, 34 10" fill="none" stroke="#FF4D00" stroke-width="2.4" stroke-linecap="round" aria-hidden="true"/>
  <path d="M 30 8 L 34 10 L 31 14" fill="none" stroke="#FF4D00" stroke-width="2.4" stroke-linecap="round" stroke-linejoin="round" aria-hidden="true"/>
</svg>
