<?xml version="1.0" encoding="UTF-8"?>
<svg viewBox="0 0 64 64" xmlns="http://www.w3.org/2000/svg" role="img" aria-labelledby="svg-minipictogram-panoplosaurus-title svg-minipictogram-panoplosaurus-desc">
  <title id="svg-minipictogram-panoplosaurus-title">View a Panoplosaurus in 3D</title>
  <desc id="svg-minipictogram-panoplosaurus-desc">Rotate the armored nodosaurid model, size it against a person, and read real fossil figures.</desc>
  <rect x="4" y="4" width="56" height="56" rx="12" ry="12" fill="#1C1C1E" aria-hidden="true"/>
  <path d="M 12 36 Q 10 46 22 47 L 40 47 Q 51 44 49 34 Q 51 24 41 21 L 24 21 Q 12 26 12 36 Z" fill="none" stroke="#FFFFFF" stroke-width="2.3" stroke-linejoin="round" aria-hidden="true"/>
  <path d="M 41 28 L 50 27 L 48 33 L 42 33 Z" fill="none" stroke="#FFFFFF" stroke-width="2" stroke-linejoin="round" aria-hidden="true"/>
  <path d="M 18 23 a 3 3 0 0 1 6 0 M 26 21 a 3 3 0 0 1 6 0 M 34 21 a 3 3 0 0 1 6 0" fill="none" stroke="#7DAFA3" stroke-width="2" stroke-linecap="round" aria-hidden="true"/>
  <circle cx="47" cy="29" r="1.6" fill="#FF4D00" aria-hidden="true"/>
  <text x="32" y="57" text-anchor="middle" font-family="-apple-system, BlinkMacSystemFont, 'Segoe UI', sans-serif" font-size="7" font-weight="700" letter-spacing="0.5" fill="#FFFFFF">NODE</text>
</svg>
