<?xml version="1.0" encoding="UTF-8"?>
<svg viewBox="0 0 64 64" xmlns="http://www.w3.org/2000/svg" role="img" aria-labelledby="svg-minipictogram-aa04db-title svg-minipictogram-aa04db-desc">
  <title id="svg-minipictogram-aa04db-title">Create a strong random password in the browser</title>
  <desc id="svg-minipictogram-aa04db-desc">Choose length from 4 to 64 and which character sets to include. Nothing is uploaded or saved.</desc>
  <rect x="4" y="4" width="56" height="56" rx="12" ry="12" fill="#1C1C1E" aria-hidden="true"/>
  <circle cx="18" cy="24" r="8" fill="none" stroke="#FFFFFF" stroke-width="2.5" aria-hidden="true"/>
  <path d="M 24 30 L 42 48 M 36 42 L 42 42 L 42 48 M 30 36 L 34 36" fill="none" stroke="#FFFFFF" stroke-width="2.5" stroke-linecap="round" stroke-linejoin="round" aria-hidden="true"/>
  <path d="M 14 46 m -1.6 0 a 1.6 1.6 0 1 0 3.2 0 a 1.6 1.6 0 1 0 -3.2 0 M 20 46 m -1.6 0 a 1.6 1.6 0 1 0 3.2 0 a 1.6 1.6 0 1 0 -3.2 0 M 26 46 m -1.6 0 a 1.6 1.6 0 1 0 3.2 0 a 1.6 1.6 0 1 0 -3.2 0" fill="#FF4D00" aria-hidden="true"/>
  <text x="32" y="57" text-anchor="middle" font-family="-apple-system, BlinkMacSystemFont, 'Segoe UI', sans-serif" font-size="7" font-weight="700" letter-spacing="0.5" fill="#FFFFFF">KEY</text>
</svg>
