<?xml version="1.0" encoding="UTF-8"?>
<svg viewBox="0 0 64 64" xmlns="http://www.w3.org/2000/svg" role="img" aria-labelledby="svg-mp-pentaceratops-title svg-mp-pentaceratops-desc">
  <title id="svg-mp-pentaceratops-title">View a Pentaceratops in 3D</title>
  <desc id="svg-mp-pentaceratops-desc">Rotate the model, size it against a person, and read real fossil figures.</desc>
  <rect x="4" y="4" width="56" height="56" rx="12" ry="12" fill="#1C1C1E" aria-hidden="true"/>
  <path d="M 46 16 A 18 18 0 0 1 46 48 L 38 48 L 38 40 L 42 40 L 38 36 L 38 28 L 42 28 L 38 24 L 38 16 Z" fill="none" stroke="#7DAFA3" stroke-width="2.2" stroke-linejoin="round" aria-hidden="true"/>
  <path d="M 30 20 L 20 22 L 26 28 L 16 32 L 26 36 L 20 40 L 30 42 Z" fill="none" stroke="#FFFFFF" stroke-width="2.2" stroke-linejoin="round" aria-hidden="true"/>
  <path d="M 22 24 Q 15 18 10 11 M 30 22 Q 27 14 25 8 M 20 40 L 15 44" fill="none" stroke="#FF4D00" stroke-width="2.2" stroke-linecap="round" aria-hidden="true"/>
  <text x="32" y="57" text-anchor="middle" font-family="-apple-system, BlinkMacSystemFont, 'Segoe UI', sans-serif" font-size="7" font-weight="700" letter-spacing="0.5" fill="#FFFFFF">PENTA</text>
</svg>
