<?xml version="1.0" encoding="UTF-8"?>
<svg viewBox="0 0 64 64" xmlns="http://www.w3.org/2000/svg" role="img" aria-labelledby="svg-minipictogram-5fd4e229-title svg-minipictogram-5fd4e229-desc">
  <title id="svg-minipictogram-5fd4e229-title">View a Pinacosaurus in 3D</title>
  <desc id="svg-minipictogram-5fd4e229-desc">Rotate the armored model, size it against a person, and read real fossil figures.</desc>
  <rect x="4" y="4" width="56" height="56" rx="12" ry="12" fill="#1C1C1E" aria-hidden="true"/>
  <path d="M 12 30 Q 10 42 22 46 L 36 46 Q 46 42 44 30 Q 46 20 36 16 L 22 16 Q 10 20 12 30 Z" fill="none" stroke="#FFFFFF" stroke-width="2.3" stroke-linejoin="round" aria-hidden="true"/>
  <path d="M 18 20 L 22 26 M 26 18 L 29 25 M 33 19 L 35 26 M 18 38 L 21 33 M 32 39 L 30 33" fill="none" stroke="#7DAFA3" stroke-width="1.8" stroke-linecap="round" aria-hidden="true"/>
  <circle cx="46" cy="28" r="1.1" fill="#FF4D00" aria-hidden="true"/>
  <circle cx="49" cy="30" r="1.1" fill="#FF4D00" aria-hidden="true"/>
  <circle cx="46" cy="32" r="1.1" fill="#FF4D00" aria-hidden="true"/>
  <circle cx="47" cy="30" r="4.2" fill="none" stroke="#FF4D00" stroke-width="1.6" aria-hidden="true"/>
  <line x1="44" y1="30" x2="42" y2="30" stroke="#FF4D00" stroke-width="2.2" stroke-linecap="round" aria-hidden="true"/>
  <circle cx="15" cy="31" r="3.6" fill="none" stroke="#7DAFA3" stroke-width="1.6" aria-hidden="true"/>
  <text x="32" y="57" text-anchor="middle" font-family="-apple-system, BlinkMacSystemFont, 'Segoe UI', sans-serif" font-size="7" font-weight="700" letter-spacing="0.5" fill="#FFFFFF">NOSE</text>
</svg>
