<?xml version="1.0" encoding="UTF-8"?>
<svg viewBox="0 0 64 64" xmlns="http://www.w3.org/2000/svg" role="img" aria-labelledby="svg-minipictogram-pixelnecromancer-title svg-minipictogram-pixelnecromancer-desc">
  <title id="svg-minipictogram-pixelnecromancer-title">Aim spells and raise undead minions</title>
  <desc id="svg-minipictogram-pixelnecromancer-desc">Aim spells at villagers, resurrect undead with Space, and buy rituals between levels.</desc>
  <rect x="4" y="4" width="56" height="56" rx="12" ry="12" fill="#1C1C1E" aria-hidden="true"/>
  <path d="M 18,27 a 14,14 0 0 1 28,0 v 8 a 4,4 0 0 1 -4,4 v 5 h -3.5 v -3 h -2 v 3 h -3.5 v -3 h -2 v 3 h -3.5 v -3 h -2 v 3 h -3.5 v -5 a 4,4 0 0 1 -4,-4 z" fill="#FFFFFF"/>
  <circle cx="26.5" cy="27.5" r="3.6" fill="#7DAFA3"/>
  <circle cx="37.5" cy="27.5" r="3.6" fill="#7DAFA3"/>
  <polygon points="32,31.5 29.7,35.8 34.3,35.8" fill="#7DAFA3"/>
  <path d="M 47,9 L 48.5,11.5 L 51,13 L 48.5,14.5 L 47,17 L 45.5,14.5 L 43,13 L 45.5,11.5 Z" fill="#FF4D00"/>
  <text x="32" y="57" text-anchor="middle" font-family="-apple-system, BlinkMacSystemFont, 'Segoe UI', sans-serif" font-size="7" font-weight="700" letter-spacing="0.5" fill="#FFFFFF">RAISE</text>
</svg>
