<?xml version="1.0" encoding="UTF-8"?>
<svg viewBox="0 0 64 64" xmlns="http://www.w3.org/2000/svg" role="img" aria-labelledby="svg-minipictogram-a6d5fe-title svg-minipictogram-a6d5fe-desc">
  <title id="svg-minipictogram-a6d5fe-title">Chat with a private on-device AI model</title>
  <desc id="svg-minipictogram-a6d5fe-desc">A private AI chat that runs in your browser. The model loads on your device; messages stay local with no upload.</desc>
  <rect x="4" y="4" width="56" height="56" rx="12" ry="12" fill="#1C1C1E" aria-hidden="true"/>
  <path d="M 14 16 L 46 16 Q 50 16 50 20 L 50 34 Q 50 38 46 38 L 24 38 L 16 46 L 18 38 L 14 38 Q 10 38 10 34 L 10 20 Q 10 16 14 16 Z" fill="none" stroke="#FFFFFF" stroke-width="2.2" stroke-linejoin="round" aria-hidden="true"/>
  <path d="M 20 24 m -1.6 0 a 1.6 1.6 0 1 0 3.2 0 a 1.6 1.6 0 1 0 -3.2 0 M 30 24 m -1.6 0 a 1.6 1.6 0 1 0 3.2 0 a 1.6 1.6 0 1 0 -3.2 0 M 40 24 m -1.6 0 a 1.6 1.6 0 1 0 3.2 0 a 1.6 1.6 0 1 0 -3.2 0" fill="#7DAFA3" aria-hidden="true"/>
  <rect x="42" y="42" width="10" height="8" rx="1.5" fill="none" stroke="#FF4D00" stroke-width="2" aria-hidden="true"/>
  <path d="M 44.5 42 L 44.5 39 A 2.5 2.5 0 0 1 49.5 39 L 49.5 42" fill="none" stroke="#FF4D00" stroke-width="2" aria-hidden="true"/>
  <text x="32" y="57" text-anchor="middle" font-family="-apple-system, BlinkMacSystemFont, 'Segoe UI', sans-serif" font-size="7" font-weight="700" letter-spacing="0.5" fill="#FFFFFF">AI</text>
</svg>
