<?xml version="1.0" encoding="UTF-8"?>
<svg viewBox="0 0 64 64" xmlns="http://www.w3.org/2000/svg" role="img" aria-labelledby="svg-minipictogram-redshiftdoppler-title svg-minipictogram-redshiftdoppler-desc">
  <title id="svg-minipictogram-redshiftdoppler-title">Explore redshift and Doppler shift</title>
  <desc id="svg-minipictogram-redshiftdoppler-desc">Redshift and Doppler shift with H-alpha line shift and the z equals v over c relation.</desc>
  <rect x="4" y="4" width="56" height="56" rx="12" ry="12" fill="#1C1C1E" aria-hidden="true"/>
  <path d="M 10 17 Q 13 11 16 17 Q 19 23 22 17 Q 25 11 28 17 Q 31 23 34 17 Q 37 11 40 17 Q 43 23 46 17 Q 49 11 52 17" fill="none" stroke="#FFFFFF" stroke-width="3" stroke-linecap="round"/>
  <path d="M 32 25 L 32 34 M 28 30 L 32 34 L 36 30" fill="none" stroke="#FF4D00" stroke-width="3" stroke-linecap="round" stroke-linejoin="round"/>
  <path d="M 10 44 Q 17 36 24 44 Q 31 52 38 44 Q 45 36 52 44" fill="none" stroke="#FF4D00" stroke-width="3" stroke-linecap="round"/>
  <text x="32" y="57" text-anchor="middle" font-family="-apple-system, BlinkMacSystemFont, 'Segoe UI', sans-serif" font-size="7" font-weight="700" letter-spacing="0.5" fill="#FFFFFF">Z=V/C</text>
</svg>
