<?xml version="1.0" encoding="UTF-8"?>
<svg viewBox="0 0 64 64" xmlns="http://www.w3.org/2000/svg" role="img" aria-labelledby="svg-minipictogram-retroarcadeshooter-title svg-minipictogram-retroarcadeshooter-desc">
  <title id="svg-minipictogram-retroarcadeshooter-title">Blast robot spiders in a lo-fi shooter</title>
  <desc id="svg-minipictogram-retroarcadeshooter-desc">Blast robot spiders through a dark server facility with WASD and mouse. Small download, instant load.</desc>
  <rect x="4" y="4" width="56" height="56" rx="12" ry="12" fill="#1C1C1E" aria-hidden="true"/>
  <circle cx="32" cy="30" r="15" fill="none" stroke="#FF4D00" stroke-width="3"/>
  <path d="M32 10.5 L32 13.5 M32 46.5 L32 49.5 M13.5 30 L16.5 30 M47.5 30 L50.5 30" fill="none" stroke="#FF4D00" stroke-width="3" stroke-linecap="round"/>
  <path d="M27 26.5 L23.5 23.5 M26 30 L21.5 30 M27 33.5 L23.5 36.5 M37 26.5 L40.5 23.5 M38 30 L42.5 30 M37 33.5 L40.5 36.5" fill="none" stroke="#FFFFFF" stroke-width="3" stroke-linecap="round"/>
  <circle cx="32" cy="30" r="6" fill="#FFFFFF"/>
  <circle cx="29.5" cy="29" r="1.6" fill="#FF4D00"/>
  <circle cx="34.5" cy="29" r="1.6" fill="#FF4D00"/>
  <text x="32" y="57" text-anchor="middle" font-family="-apple-system, BlinkMacSystemFont, 'Segoe UI', sans-serif" font-size="7" font-weight="700" letter-spacing="0.5" fill="#FFFFFF">SHOOT</text>
</svg>
