<?xml version="1.0" encoding="UTF-8"?>
<svg viewBox="0 0 64 64" xmlns="http://www.w3.org/2000/svg" role="img" aria-labelledby="svg-minipictogram-rochelimit-title svg-minipictogram-rochelimit-desc">
  <title id="svg-minipictogram-rochelimit-title">Roche Limit 3D Explorer - Free Online</title>
  <desc id="svg-minipictogram-rochelimit-desc">Roche Limit 3D Explorer - fluid ~2.44 R, rigid ~1.26 R, distance scrub - free 3D.</desc>
  <rect x="4" y="4" width="56" height="56" rx="12" ry="12" fill="#1C1C1E" aria-hidden="true"/>
  <circle cx="18" cy="40" r="10" fill="#7DAFA3"/>
  <path d="M 24.2 23.1 A 18 18 0 0 1 34.9 46.2" fill="none" stroke="#FF4D00" stroke-width="2.5" stroke-linecap="round" stroke-dasharray="4 4"/>
  <circle cx="46" cy="14" r="4.5" fill="#FFFFFF"/>
  <path d="M 35.6 23.7 m -3 0 a 3 3 0 1 0 6 0 a 3 3 0 1 0 -6 0 M 30.8 28.1 m -2.2 0 a 2.2 2.2 0 1 0 4.4 0 a 2.2 2.2 0 1 0 -4.4 0 M 27.2 31.5 m -1.6 0 a 1.6 1.6 0 1 0 3.2 0 a 1.6 1.6 0 1 0 -3.2 0" fill="#FFFFFF"/>
  <text x="32" y="57" text-anchor="middle" font-family="-apple-system, BlinkMacSystemFont, 'Segoe UI', sans-serif" font-size="7" font-weight="700" letter-spacing="0.5" fill="#FFFFFF">ROCHE</text>
</svg>
