<?xml version="1.0" encoding="UTF-8"?>
<svg viewBox="0 0 64 64" xmlns="http://www.w3.org/2000/svg" role="img" aria-labelledby="t-src d-src">
  <title id="t-src">View a Sarcosuchus in 3D</title>
  <desc id="d-src">Rotate the giant crocodile relative and compare its length to a person.</desc>
  <rect x="4" y="4" width="56" height="56" rx="12" ry="12" fill="#1C1C1E"/>
  <path d="M 8 40 Q 6 41 8 42 L 24 43 Q 33 44 41 40 L 47 35 L 58 30 L 58 27 L 53 28 Q 45 31 37 33 Q 29 35 22 36 Q 15 37 8 40 Z" fill="#FFFFFF"/>
  <path d="M 47 35 L 51 32 M 51.5 33.5 L 55 30.5 M 55.5 32 L 58 29.5" stroke="#FFFFFF" stroke-width="1.3" stroke-linecap="round"/>
  <circle cx="49" cy="30" r="1.8" fill="#FF4D00"/>
  <path d="M 18 34 L 20 30 M 25 33 L 27 29 M 32 32 L 34 28" stroke="#7DAFA3" stroke-width="1.7" stroke-linecap="round"/>
  <text x="32" y="57" text-anchor="middle" font-family="-apple-system, BlinkMacSystemFont, 'Segoe UI', sans-serif" font-size="7" font-weight="700" letter-spacing="0.5" fill="#FFFFFF">CROC</text>
</svg>
