<?xml version="1.0" encoding="UTF-8"?>
<svg viewBox="0 0 64 64" xmlns="http://www.w3.org/2000/svg" role="img" aria-labelledby="svg-minipictogram-a4c9e21f-title svg-minipictogram-a4c9e21f-desc">
  <title id="svg-minipictogram-a4c9e21f-title">View a Smilodon in 3D</title>
  <desc id="svg-minipictogram-a4c9e21f-desc">Rotate the sabre-tooth cat, size it against a person, and read real fossil figures.</desc>
  <rect x="4" y="4" width="56" height="56" rx="12" ry="12" fill="#1C1C1E" aria-hidden="true"/>
  <path d="M 14 30 Q 12 21 20 18 Q 26 16 30 19 Q 40 18 46 24 Q 50 28 48 34 Q 47 40 40 42 L 40 47 M 32 43 Q 22 45 16 40 Q 13 36 14 30 Z" fill="none" stroke="#FFFFFF" stroke-width="2.3" stroke-linejoin="round" stroke-linecap="round" aria-hidden="true"/>
  <path d="M 20 30 L 18 40 M 27 32 L 26 42 M 36 33 L 37 43" fill="none" stroke="#FFFFFF" stroke-width="2" stroke-linecap="round" aria-hidden="true"/>
  <path d="M 20 27 L 17 34 M 24 26 L 22 33" fill="none" stroke="#FF4D00" stroke-width="2.3" stroke-linecap="round" aria-hidden="true"/>
  <circle cx="24" cy="21" r="1.7" fill="#7DAFA3" aria-hidden="true"/>
</svg>
