<?xml version="1.0" encoding="UTF-8"?>
<svg viewBox="0 0 64 64" xmlns="http://www.w3.org/2000/svg" role="img" aria-labelledby="svg-minipictogram-b75ec1-title svg-minipictogram-b75ec1-desc">
  <title id="svg-minipictogram-b75ec1-title">Star Trails</title>
  <desc id="svg-minipictogram-b75ec1-desc">Hub pictogram</desc>
  <rect x="4" y="4" width="56" height="56" rx="12" ry="12" fill="#1C1C1E" aria-hidden="true"/>
  <circle cx="32" cy="31" r="2.5" fill="#FF4D00" aria-hidden="true"/>
  <path d="M 40 31 A 8 8 0 1 1 32 23 M 45 31 A 13 13 0 1 1 32 18 M 50 31 A 18 18 0 1 1 32 13" fill="none" stroke="#FFFFFF" stroke-width="2.5" stroke-linecap="round" aria-hidden="true"/>
  <path d="M 32 23 m -1.6 0 a 1.6 1.6 0 1 0 3.2 0 a 1.6 1.6 0 1 0 -3.2 0 M 32 13 m -1.6 0 a 1.6 1.6 0 1 0 3.2 0 a 1.6 1.6 0 1 0 -3.2 0" fill="#FF4D00" aria-hidden="true"/>
  <text x="32" y="57" text-anchor="middle" font-family="-apple-system, BlinkMacSystemFont, 'Segoe UI', sans-serif" font-size="7" font-weight="700" letter-spacing="0.5" fill="#FFFFFF">SPIN</text>
</svg>
