<?xml version="1.0" encoding="UTF-8"?>
<svg viewBox="0 0 64 64" xmlns="http://www.w3.org/2000/svg" role="img" aria-labelledby="svg-minipictogram-54b090-title svg-minipictogram-54b090-desc">
  <title id="svg-minipictogram-54b090-title">Stellar Parallax 3D Explorer</title>
  <desc id="svg-minipictogram-54b090-desc">A nearby star shifting against the background as Earth orbits the Sun</desc>
  <rect x="4" y="4" width="56" height="56" rx="12" ry="12" fill="#1C1C1E" aria-hidden="true"/>
  <ellipse cx="32" cy="31" rx="17" ry="7" fill="none" stroke="#7DAFA3" stroke-width="2.5" aria-hidden="true"/>
  <path d="M 15 31 m -2.4 0 a 2.4 2.4 0 1 0 4.8 0 a 2.4 2.4 0 1 0 -4.8 0 M 49 31 m -2.4 0 a 2.4 2.4 0 1 0 4.8 0 a 2.4 2.4 0 1 0 -4.8 0" fill="#FFFFFF" aria-hidden="true"/>
  <path d="M 30 13 m -1.6 0 a 1.6 1.6 0 1 0 3.2 0 a 1.6 1.6 0 1 0 -3.2 0 M 35 13 m -1.6 0 a 1.6 1.6 0 1 0 3.2 0 a 1.6 1.6 0 1 0 -3.2 0" fill="#FF4D00" aria-hidden="true"/>
  <text x="32" y="57" text-anchor="middle" font-family="-apple-system, BlinkMacSystemFont, 'Segoe UI', sans-serif" font-size="7" font-weight="700" letter-spacing="0.5" fill="#FFFFFF">3D</text>
</svg>
