<?xml version="1.0" encoding="UTF-8"?>
<svg viewBox="0 0 64 64" xmlns="http://www.w3.org/2000/svg" role="img" aria-labelledby="svg-minipictogram-7aed2e-title svg-minipictogram-7aed2e-desc">
  <title id="svg-minipictogram-7aed2e-title">Stellar Proper Motion 3D Explorer</title>
  <desc id="svg-minipictogram-7aed2e-desc">Watch the Big Dipper drift out of shape over 100000 years</desc>
  <rect x="4" y="4" width="56" height="56" rx="12" ry="12" fill="#1C1C1E" aria-hidden="true"/>
  <path d="M 16 24 L 24 19 L 31 22 L 36 28 L 16 24 M 36 28 L 42 32 L 47 38 L 50 46" fill="none" stroke="#FFFFFF" stroke-width="2.5" stroke-linecap="round" stroke-linejoin="round" aria-hidden="true"/>
  <path d="M 16 24 m -1.8 0 a 1.8 1.8 0 1 0 3.6 0 a 1.8 1.8 0 1 0 -3.6 0 M 24 19 m -1.5 0 a 1.5 1.5 0 1 0 3 0 a 1.5 1.5 0 1 0 -3 0 M 31 22 m -1.5 0 a 1.5 1.5 0 1 0 3 0 a 1.5 1.5 0 1 0 -3 0 M 36 28 m -1.6 0 a 1.6 1.6 0 1 0 3.2 0 a 1.6 1.6 0 1 0 -3.2 0 M 42 32 m -1.4 0 a 1.4 1.4 0 1 0 2.8 0 a 1.4 1.4 0 1 0 -2.8 0 M 47 38 m -1.4 0 a 1.4 1.4 0 1 0 2.8 0 a 1.4 1.4 0 1 0 -2.8 0 M 50 46 m -1.6 0 a 1.6 1.6 0 1 0 3.2 0 a 1.6 1.6 0 1 0 -3.2 0" fill="#FFFFFF" aria-hidden="true"/>
  <path d="M 12 24 L 15.5 24 M 50 49 L 50 46" fill="none" stroke="#FF4D00" stroke-width="2.5" stroke-linecap="round" aria-hidden="true"/>
  <text x="32" y="57" text-anchor="middle" font-family="-apple-system, BlinkMacSystemFont, 'Segoe UI', sans-serif" font-size="7" font-weight="700" letter-spacing="0.5" fill="#FFFFFF">DRIFT</text>
</svg>
