<?xml version="1.0" encoding="UTF-8"?>
<svg viewBox="0 0 64 64" xmlns="http://www.w3.org/2000/svg" role="img" aria-labelledby="svg-minipictogram-tdeecaloriecalculator-title svg-minipictogram-tdeecaloriecalculator-desc">
  <title id="svg-minipictogram-tdeecaloriecalculator-title">Estimate daily calorie needs</title>
  <desc id="svg-minipictogram-tdeecaloriecalculator-desc">A calorie flame over a measurement line, for the BMR and TDEE calculator that estimates daily energy needs from activity level.</desc>
  <rect x="4" y="4" width="56" height="56" rx="12" ry="12" fill="#1C1C1E" aria-hidden="true"/>
  <path d="M32 14 C 25 20 20 27 21 35 C 22 41 26 45 32 45 C 38 45 42 41 43 35 C 44 27 39 20 32 14 Z" fill="#FFFFFF" aria-hidden="true"/>
  <path d="M32 24 C 28 28 26 32 27 36 C 27 39 29 41 32 41 C 35 41 37 39 37 36 C 38 32 36 28 32 24 Z" fill="#FF4D00" aria-hidden="true"/>
  <path d="M22 49 L 42 49" fill="none" stroke="#7DAFA3" stroke-width="3" stroke-linecap="round" aria-hidden="true"/>
  <text x="32" y="59" text-anchor="middle" font-family="-apple-system, BlinkMacSystemFont, 'Segoe UI', sans-serif" font-size="7" font-weight="700" letter-spacing="0.5" fill="#FFFFFF">KCAL</text>
</svg>
