<?xml version="1.0" encoding="UTF-8"?>
<svg viewBox="0 0 64 64" xmlns="http://www.w3.org/2000/svg" role="img" aria-labelledby="svg-minipictogram-titanosaurus-title svg-minipictogram-titanosaurus-desc">
  <title id="svg-minipictogram-titanosaurus-title">Rotate a Titanosaurus in 3D</title>
  <desc id="svg-minipictogram-titanosaurus-desc">Rotate the historic Indian titanosaur in your browser and see published fossil figures beside a person.</desc>
  <rect x="4" y="4" width="56" height="56" rx="12" ry="12" fill="#1C1C1E" aria-hidden="true"/>
  <path d="M 10 42 Q 8 32 16 28 L 22 25 Q 28 20 34 24 Q 42 30 50 34 L 54 36 L 52 41 L 44 38 Q 34 44 22 44 Z" fill="none" stroke="#FFFFFF" stroke-width="2.3" stroke-linejoin="round" aria-hidden="true"/>
  <circle cx="14" cy="29" r="1.6" fill="#7DAFA3" aria-hidden="true"/>
  <path d="M 26 33 m -1.5 0 a 1.5 1.5 0 1 0 3 0 a 1.5 1.5 0 1 0 -3 0 M 34 35 m -1.5 0 a 1.5 1.5 0 1 0 3 0 a 1.5 1.5 0 1 0 -3 0" fill="#FF4D00" aria-hidden="true"/>
  <text x="32" y="57" text-anchor="middle" font-family="-apple-system, BlinkMacSystemFont, 'Segoe UI', sans-serif" font-size="7" font-weight="700" letter-spacing="0.5" fill="#FFFFFF">IND</text>
</svg>
