<?xml version="1.0" encoding="UTF-8"?>
<svg viewBox="0 0 64 64" xmlns="http://www.w3.org/2000/svg" role="img" aria-labelledby="svg-minipictogram-841484-title svg-minipictogram-841484-desc">
  <title id="svg-minipictogram-841484-title">Jupiter Trojan Asteroids 3D Explorer</title>
  <desc id="svg-minipictogram-841484-desc">Two asteroid swarms 60 degrees ahead of and behind Jupiter at L4 and L5</desc>
  <rect x="4" y="4" width="56" height="56" rx="12" ry="12" fill="#1C1C1E" aria-hidden="true"/>
  <circle cx="32" cy="31" r="17" fill="none" stroke="#FFFFFF" stroke-width="2.5" aria-hidden="true"/>
  <circle cx="49" cy="31" r="3" fill="#FF4D00" aria-hidden="true"/>
  <path d="M 40.5 16.3 m -1.8 0 a 1.8 1.8 0 1 0 3.6 0 a 1.8 1.8 0 1 0 -3.6 0 M 44.5 19.5 m -1.4 0 a 1.4 1.4 0 1 0 2.8 0 a 1.4 1.4 0 1 0 -2.8 0 M 40.5 45.7 m -1.8 0 a 1.8 1.8 0 1 0 3.6 0 a 1.8 1.8 0 1 0 -3.6 0 M 44.5 42.5 m -1.4 0 a 1.4 1.4 0 1 0 2.8 0 a 1.4 1.4 0 1 0 -2.8 0" fill="#7DAFA3" aria-hidden="true"/>
  <text x="32" y="57" text-anchor="middle" font-family="-apple-system, BlinkMacSystemFont, 'Segoe UI', sans-serif" font-size="7" font-weight="700" letter-spacing="0.5" fill="#FFFFFF">L4L5</text>
</svg>
