<?xml version="1.0" encoding="UTF-8"?>
<svg viewBox="0 0 64 64" xmlns="http://www.w3.org/2000/svg" role="img" aria-labelledby="svg-minipictogram-40191d52-title svg-minipictogram-40191d52-desc">
  <title id="svg-minipictogram-40191d52-title">View a Woolly Mammoth in 3D</title>
  <desc id="svg-minipictogram-40191d52-desc">Rotate the model, size it against a person, and read real fossil figures.</desc>
  <rect x="4" y="4" width="56" height="56" rx="12" ry="12" fill="#1C1C1E" aria-hidden="true"/>
  <path d="M 14 32 Q 12 22 22 18 Q 30 14 38 18 Q 48 22 48 30 Q 50 38 44 44 Q 36 48 26 46 Q 16 44 14 38 Z" fill="none" stroke="#FFFFFF" stroke-width="2.3" stroke-linejoin="round" aria-hidden="true"/>
  <path d="M 18 40 L 17 52 M 26 44 L 25 52 M 38 45 L 39 52 M 45 42 L 47 52" fill="none" stroke="#FFFFFF" stroke-width="2.1" stroke-linecap="round" aria-hidden="true"/>
  <path d="M 48 34 Q 52 36 52 40" fill="none" stroke="#FFFFFF" stroke-width="1.8" stroke-linecap="round" aria-hidden="true"/>
  <path d="M 14 29 Q 8 34 9 42 Q 10 46 14 45" fill="none" stroke="#FF4D00" stroke-width="2.2" stroke-linecap="round" aria-hidden="true"/>
  <path d="M 12 32 Q 4 30 2 24 M 12 34 Q 6 40 4 46" fill="none" stroke="#FF4D00" stroke-width="2" stroke-linecap="round" aria-hidden="true"/>
  <circle cx="20" cy="22" r="1.6" fill="#7DAFA3" aria-hidden="true"/>
</svg>
