<?xml version="1.0" encoding="UTF-8"?>
<svg viewBox="0 0 64 64" xmlns="http://www.w3.org/2000/svg" role="img" aria-labelledby="svg-minipictogram-baef42-title svg-minipictogram-baef42-desc">
  <title id="svg-minipictogram-baef42-title">Compress files and folders into one ZIP archive</title>
  <desc id="svg-minipictogram-baef42-desc">Bundle files into a single downloadable ZIP, with an optional password, ready to email or upload.</desc>
  <rect x="4" y="4" width="56" height="56" rx="12" ry="12" fill="#1C1C1E" aria-hidden="true"/>
  <path d="M 10 16 L 28 16 L 28 20 L 32 20 L 32 24 L 28 24 L 28 28 L 32 28 L 32 32 L 28 32 L 28 36 L 32 36 L 32 40 L 28 40 L 28 44 L 10 44 Z" fill="none" stroke="#FFFFFF" stroke-width="2.2" stroke-linejoin="round" aria-hidden="true"/>
  <path d="M 42 18 L 42 30 M 42 30 L 37 25 M 42 30 L 47 25" fill="none" stroke="#7DAFA3" stroke-width="2.2" stroke-linecap="round" stroke-linejoin="round" aria-hidden="true"/>
  <path d="M 38 38 L 50 38 L 50 46 L 38 46 Z" fill="none" stroke="#FF4D00" stroke-width="2.2" stroke-linejoin="round" aria-hidden="true"/>
  <text x="32" y="57" text-anchor="middle" font-family="-apple-system, BlinkMacSystemFont, 'Segoe UI', sans-serif" font-size="7" font-weight="700" letter-spacing="0.5" fill="#FFFFFF">ZIP</text>
</svg>
