<?xml version="1.0" encoding="UTF-8"?>
<svg viewBox="0 0 640 360" xmlns="http://www.w3.org/2000/svg" role="img" aria-labelledby="svg-hubspoke4-e14774-title svg-hubspoke4-e14774-desc">
  <title id="svg-hubspoke4-e14774-title">Acrocanthosaurus facts</title>
  <desc id="svg-hubspoke4-e14774-desc">Four Acrocanthosaurus measures: length, mass, age, and diet.</desc>
  <line x1="320" y1="180" x2="200" y2="39" stroke="#3C3C3E" stroke-width="3" stroke-linecap="round" aria-hidden="true"/>
  <line x1="320" y1="180" x2="456" y2="39" stroke="#3C3C3E" stroke-width="3" stroke-linecap="round" aria-hidden="true"/>
  <line x1="320" y1="180" x2="209" y2="322" stroke="#3C3C3E" stroke-width="3" stroke-linecap="round" aria-hidden="true"/>
  <line x1="320" y1="180" x2="456" y2="322" stroke="#3C3C3E" stroke-width="3" stroke-linecap="round" aria-hidden="true"/>
  <rect x="16" y="16" width="184" height="45" rx="12" fill="#3C3C3E" aria-hidden="true"/>
  <circle cx="36" cy="39" r="8" fill="#3C3C3E" aria-hidden="true"/>
  <text x="50" y="44" font-family="-apple-system,BlinkMacSystemFont,'Segoe UI',sans-serif" font-size="15" font-weight="500" fill="#FFFFFF"><tspan x="50" dy="0">Length 11-11.5 m</tspan></text>
  <rect x="456" y="16" width="168" height="45" rx="12" fill="#3C3C3E" aria-hidden="true"/>
  <circle cx="476" cy="39" r="8" fill="#3C3C3E" aria-hidden="true"/>
  <text x="490" y="44" font-family="-apple-system,BlinkMacSystemFont,'Segoe UI',sans-serif" font-size="15" font-weight="500" fill="#FFFFFF"><tspan x="490" dy="0">Mass 4.4-8.4 t</tspan></text>
  <rect x="16" y="299" width="193" height="45" rx="12" fill="#3C3C3E" aria-hidden="true"/>
  <circle cx="36" cy="322" r="8" fill="#3C3C3E" aria-hidden="true"/>
  <text x="50" y="327" font-family="-apple-system,BlinkMacSystemFont,'Segoe UI',sans-serif" font-size="15" font-weight="500" fill="#FFFFFF"><tspan x="50" dy="0">Lived 125-100 Mya</tspan></text>
  <rect x="456" y="299" width="168" height="45" rx="12" fill="#3C3C3E" aria-hidden="true"/>
  <circle cx="476" cy="322" r="8" fill="#3C3C3E" aria-hidden="true"/>
  <text x="490" y="327" font-family="-apple-system,BlinkMacSystemFont,'Segoe UI',sans-serif" font-size="15" font-weight="500" fill="#FFFFFF"><tspan x="490" dy="0">Apex carnivore</tspan></text>
  <rect x="219" y="153" width="203" height="54" rx="27" fill="#1C1C1E" stroke="#3C3C3E" stroke-width="3" aria-hidden="true"/>
  <text x="320" y="186" text-anchor="middle" font-family="-apple-system,BlinkMacSystemFont,'Segoe UI',sans-serif" font-size="17" font-weight="600" fill="#FFFFFF"><tspan x="320" dy="0">Acrocanthosaurus</tspan></text>
</svg>
