<?xml version="1.0" encoding="UTF-8"?>
<svg viewBox="0 0 640 360" xmlns="http://www.w3.org/2000/svg" role="img" aria-labelledby="svg-hubspoke4-502a0a-title svg-hubspoke4-502a0a-desc">
  <title id="svg-hubspoke4-502a0a-title">Doppler Radial Velocity 3D Explorer</title>
  <desc id="svg-hubspoke4-502a0a-desc">Four key figures for Doppler Radial Velocity 3D Explorer</desc>
  <line x1="320" y1="180" x2="184" y2="39" stroke="#5B73AE" stroke-width="3" stroke-linecap="round" aria-hidden="true"/>
  <line x1="320" y1="180" x2="456" y2="39" stroke="#5B73AE" stroke-width="3" stroke-linecap="round" aria-hidden="true"/>
  <line x1="320" y1="180" x2="166" y2="322" stroke="#5B73AE" stroke-width="3" stroke-linecap="round" aria-hidden="true"/>
  <line x1="320" y1="180" x2="456" y2="312" stroke="#5B73AE" stroke-width="3" stroke-linecap="round" aria-hidden="true"/>
  <rect x="16" y="16" width="168" height="45" rx="12" fill="#3C3C3E" aria-hidden="true"/>
  <circle cx="36" cy="39" r="8" fill="#5B73AE" aria-hidden="true"/>
  <text x="50" y="44" font-family="-apple-system,BlinkMacSystemFont,'Segoe UI',sans-serif" font-size="15" font-weight="500" fill="#FFFFFF"><tspan x="50" dy="0">51 Peg b: 1995</tspan></text>
  <rect x="456" y="16" width="168" height="45" rx="12" fill="#3C3C3E" aria-hidden="true"/>
  <circle cx="476" cy="39" r="8" fill="#5B73AE" aria-hidden="true"/>
  <text x="490" y="44" font-family="-apple-system,BlinkMacSystemFont,'Segoe UI',sans-serif" font-size="15" font-weight="500" fill="#FFFFFF"><tspan x="490" dy="0">Period ~4.23 d</tspan></text>
  <rect x="16" y="299" width="150" height="45" rx="12" fill="#3C3C3E" aria-hidden="true"/>
  <circle cx="36" cy="322" r="8" fill="#5B73AE" aria-hidden="true"/>
  <text x="50" y="327" font-family="-apple-system,BlinkMacSystemFont,'Segoe UI',sans-serif" font-size="15" font-weight="500" fill="#FFFFFF"><tspan x="50" dy="0">K ~55.7 m/s</tspan></text>
  <rect x="456" y="280" width="168" height="64" rx="12" fill="#3C3C3E" aria-hidden="true"/>
  <circle cx="476" cy="312" r="8" fill="#5B73AE" aria-hidden="true"/>
  <text x="490" y="308" font-family="-apple-system,BlinkMacSystemFont,'Segoe UI',sans-serif" font-size="15" font-weight="500" fill="#FFFFFF"><tspan x="490" dy="0">Jup wobble ~13</tspan><tspan x="490" dy="19">m/s</tspan></text>
  <rect x="249" y="153" width="142" height="54" rx="27" fill="#1C1C1E" stroke="#5B73AE" stroke-width="3" aria-hidden="true"/>
  <text x="320" y="186" text-anchor="middle" font-family="-apple-system,BlinkMacSystemFont,'Segoe UI',sans-serif" font-size="17" font-weight="600" fill="#FFFFFF"><tspan x="320" dy="0">RV Doppler</tspan></text>
</svg>
