<?xml version="1.0" encoding="UTF-8"?>
<svg viewBox="0 0 640 360" xmlns="http://www.w3.org/2000/svg" role="img" aria-labelledby="svg-hubspoke4-f7d8e9-title svg-hubspoke4-f7d8e9-desc">
  <title id="svg-hubspoke4-f7d8e9-title">O que um app nativo de teste de tela adiciona</title>
  <desc id="svg-hubspoke4-f7d8e9-desc">O que um app nativo de teste de tela adiciona: Varreduras de taxa de, Validacao de 10 bits e, Criacao e validacao de,</desc>
  <line x1="320" y1="180" x2="175" y2="48" stroke="#D9C7A3" stroke-width="3" stroke-linecap="round" aria-hidden="true"/>
  <line x1="320" y1="180" x2="448" y2="48" stroke="#D9C7A3" stroke-width="3" stroke-linecap="round" aria-hidden="true"/>
  <line x1="320" y1="180" x2="167" y2="312" stroke="#D9C7A3" stroke-width="3" stroke-linecap="round" aria-hidden="true"/>
  <line x1="320" y1="180" x2="465" y2="312" stroke="#D9C7A3" stroke-width="3" stroke-linecap="round" aria-hidden="true"/>
  <rect x="16" y="16" width="159" height="64" rx="12" fill="#3C3C3E" aria-hidden="true"/>
  <circle cx="36" cy="48" r="8" fill="#D9C7A3" aria-hidden="true"/>
  <text x="50" y="44" font-family="-apple-system,BlinkMacSystemFont,'Segoe UI',sans-serif" font-size="15" font-weight="500" fill="#FFFFFF"><tspan x="50" dy="0">Varreduras de</tspan><tspan x="50" dy="19">taxa de</tspan></text>
  <rect x="448" y="16" width="176" height="64" rx="12" fill="#3C3C3E" aria-hidden="true"/>
  <circle cx="468" cy="48" r="8" fill="#D9C7A3" aria-hidden="true"/>
  <text x="482" y="44" font-family="-apple-system,BlinkMacSystemFont,'Segoe UI',sans-serif" font-size="15" font-weight="500" fill="#FFFFFF"><tspan x="482" dy="0">Validacao de 10</tspan><tspan x="482" dy="19">bits e</tspan></text>
  <rect x="16" y="280" width="151" height="64" rx="12" fill="#3C3C3E" aria-hidden="true"/>
  <circle cx="36" cy="312" r="8" fill="#D9C7A3" aria-hidden="true"/>
  <text x="50" y="308" font-family="-apple-system,BlinkMacSystemFont,'Segoe UI',sans-serif" font-size="15" font-weight="500" fill="#FFFFFF"><tspan x="50" dy="0">Criacao e</tspan><tspan x="50" dy="19">validacao de</tspan></text>
  <rect x="465" y="280" width="159" height="64" rx="12" fill="#3C3C3E" aria-hidden="true"/>
  <circle cx="485" cy="312" r="8" fill="#D9C7A3" aria-hidden="true"/>
  <text x="499" y="308" font-family="-apple-system,BlinkMacSystemFont,'Segoe UI',sans-serif" font-size="15" font-weight="500" fill="#FFFFFF"><tspan x="499" dy="0">Relatorios de</tspan><tspan x="499" dy="19">tempo de</tspan></text>
  <rect x="249" y="153" width="142" height="54" rx="27" fill="#1C1C1E" stroke="#D9C7A3" stroke-width="3" aria-hidden="true"/>
  <text x="320" y="186" text-anchor="middle" font-family="-apple-system,BlinkMacSystemFont,'Segoe UI',sans-serif" font-size="17" font-weight="600" fill="#FFFFFF"><tspan x="320" dy="0">Native App</tspan></text>
</svg>
