<?xml version="1.0" encoding="UTF-8"?>
<svg viewBox="0 0 640 360" xmlns="http://www.w3.org/2000/svg" role="img" aria-labelledby="svg-hubspoke4-5c7d5e-title svg-hubspoke4-5c7d5e-desc">
  <title id="svg-hubspoke4-5c7d5e-title">Tan du sieu tan tinh: so lieu chinh</title>
  <desc id="svg-hubspoke4-5c7d5e-desc">So lieu chinh cua tan du sieu tan tinh: khoang cach khoang 6.500 nam anh sang, toc do gian no khoang 1.500 km/s, tuoi kieu Cua khoang 970 nam, su kien lich su SN 1054.</desc>
  <line x1="320" y1="180" x2="175" y2="48" stroke="#5B73AE" stroke-width="3" stroke-linecap="round" aria-hidden="true"/>
  <line x1="320" y1="180" x2="456" y2="48" stroke="#5B73AE" stroke-width="3" stroke-linecap="round" aria-hidden="true"/>
  <line x1="320" y1="180" x2="175" y2="322" stroke="#5B73AE" stroke-width="3" stroke-linecap="round" aria-hidden="true"/>
  <line x1="320" y1="180" x2="440" y2="322" stroke="#5B73AE" stroke-width="3" stroke-linecap="round" aria-hidden="true"/>
  <rect x="16" y="16" width="159" height="64" rx="12" fill="#3C3C3E" aria-hidden="true"/>
  <circle cx="36" cy="48" r="8" fill="#5B73AE" aria-hidden="true"/>
  <text x="50" y="44" font-family="-apple-system,BlinkMacSystemFont,'Segoe UI',sans-serif" font-size="15" font-weight="500" fill="#FFFFFF"><tspan x="50" dy="0">Khoang cach</tspan><tspan x="50" dy="19">~6.500 nam AS</tspan></text>
  <rect x="456" y="16" width="168" height="64" rx="12" fill="#3C3C3E" aria-hidden="true"/>
  <circle cx="476" cy="48" r="8" fill="#5B73AE" aria-hidden="true"/>
  <text x="490" y="44" font-family="-apple-system,BlinkMacSystemFont,'Segoe UI',sans-serif" font-size="15" font-weight="500" fill="#FFFFFF"><tspan x="490" dy="0">Gian no ~1.500</tspan><tspan x="490" dy="19">km/s</tspan></text>
  <rect x="16" y="299" width="159" height="45" rx="12" fill="#3C3C3E" aria-hidden="true"/>
  <circle cx="36" cy="322" r="8" fill="#5B73AE" aria-hidden="true"/>
  <text x="50" y="327" font-family="-apple-system,BlinkMacSystemFont,'Segoe UI',sans-serif" font-size="15" font-weight="500" fill="#FFFFFF"><tspan x="50" dy="0">Tuoi ~970 nam</tspan></text>
  <rect x="440" y="299" width="184" height="45" rx="12" fill="#3C3C3E" aria-hidden="true"/>
  <circle cx="460" cy="322" r="8" fill="#5B73AE" aria-hidden="true"/>
  <text x="474" y="327" font-family="-apple-system,BlinkMacSystemFont,'Segoe UI',sans-serif" font-size="15" font-weight="500" fill="#FFFFFF"><tspan x="474" dy="0">Su kien: SN 1054</tspan></text>
  <rect x="234" y="153" width="173" height="54" rx="27" fill="#1C1C1E" stroke="#5B73AE" stroke-width="3" aria-hidden="true"/>
  <text x="320" y="186" text-anchor="middle" font-family="-apple-system,BlinkMacSystemFont,'Segoe UI',sans-serif" font-size="17" font-weight="600" fill="#FFFFFF"><tspan x="320" dy="0">Sieu tan tinh</tspan></text>
</svg>
