<?xml version="1.0" encoding="UTF-8"?>
<svg viewBox="0 0 640 360" xmlns="http://www.w3.org/2000/svg" role="img" aria-labelledby="svg-hubspoke4-5ecb92-title svg-hubspoke4-5ecb92-desc">
  <title id="svg-hubspoke4-5ecb92-title">Sunspot magnetic loops key figures</title>
  <desc id="svg-hubspoke4-5ecb92-desc">Sunspot magnetic loops key figures: umbral fields run 2000 to 3700 gauss, the umbra is about 3700 to 4000 K, the photosphere about 5800 K, and coronal loops reach 1 to 3 million K.</desc>
  <style>
    :root{--p:#5B73AE;--card:#F0F0F2;--ink:#3C3C3E;--onfill:#FFFFFF}
    text{font-family:-apple-system,BlinkMacSystemFont,'Segoe UI',sans-serif}
    .p{fill:var(--p)}.card{fill:var(--card);stroke:var(--ink);stroke-width:1}
    .ink{fill:var(--ink)}.onfill{fill:var(--onfill)}.ln{stroke:var(--p);stroke-width:3;fill:none}
    @media (prefers-color-scheme: dark){.card{stroke:var(--onfill)}}
  </style>
  <line class="ln" x1="245" y1="130" x2="115" y2="72" aria-hidden="true"/>
  <line class="ln" x1="395" y1="130" x2="525" y2="72" aria-hidden="true"/>
  <line class="ln" x1="245" y1="230" x2="115" y2="288" aria-hidden="true"/>
  <line class="ln" x1="395" y1="230" x2="525" y2="288" aria-hidden="true"/>
  <rect class="card" x="30" y="30" width="180" height="72" rx="12" aria-hidden="true"/>
  <circle class="p" cx="58" cy="66" r="12" aria-hidden="true"/>
  <text class="ink" x="80" y="72" font-size="16">Umbra 2000-3700 G</text>
  <rect class="card" x="430" y="30" width="180" height="72" rx="12" aria-hidden="true"/>
  <circle class="p" cx="458" cy="66" r="12" aria-hidden="true"/>
  <text class="ink" x="480" y="72" font-size="16">Umbra ~3700-4000K</text>
  <rect class="card" x="30" y="258" width="180" height="72" rx="12" aria-hidden="true"/>
  <circle class="p" cx="58" cy="294" r="12" aria-hidden="true"/>
  <text class="ink" x="80" y="300" font-size="16">Photosphere ~5800K</text>
  <rect class="card" x="430" y="258" width="180" height="72" rx="12" aria-hidden="true"/>
  <circle class="p" cx="458" cy="294" r="12" aria-hidden="true"/>
  <text class="ink" x="480" y="300" font-size="16">Corona 1-3M K</text>
  <circle class="p" cx="320" cy="180" r="60" aria-hidden="true"/>
  <text class="onfill" x="320" y="187" text-anchor="middle" font-size="18" font-weight="600">Sunspot loops</text>
</svg>
