<?xml version="1.0" encoding="UTF-8"?>
<svg viewBox="0 0 640 360" xmlns="http://www.w3.org/2000/svg" role="img" aria-labelledby="svg-hubspoke4-3b99f4-title svg-hubspoke4-3b99f4-desc">
  <title id="svg-hubspoke4-3b99f4-title">Remove Duplicate Lines frente a una hoja de calculo o la linea de comandos</title>
  <desc id="svg-hubspoke4-3b99f4-desc">Remove Duplicate Lines frente a una hoja de calculo o la linea de comandos - four points from this section.</desc>
  <line x1="320" y1="180" x2="200" y2="48" stroke="#5B73AE" stroke-width="3" stroke-linecap="round" aria-hidden="true"/>
  <line x1="320" y1="180" x2="448" y2="48" stroke="#5B73AE" stroke-width="3" stroke-linecap="round" aria-hidden="true"/>
  <line x1="320" y1="180" x2="209" y2="322" stroke="#5B73AE" stroke-width="3" stroke-linecap="round" aria-hidden="true"/>
  <line x1="320" y1="180" x2="431" y2="322" stroke="#5B73AE" stroke-width="3" stroke-linecap="round" aria-hidden="true"/>
  <rect x="16" y="16" width="184" height="64" rx="12" fill="#3C3C3E" aria-hidden="true"/>
  <circle cx="36" cy="48" r="8" fill="#5B73AE" aria-hidden="true"/>
  <text x="50" y="44" font-family="-apple-system,BlinkMacSystemFont,'Segoe UI',sans-serif" font-size="15" font-weight="500" fill="#FFFFFF"><tspan x="50" dy="0">Remove Duplicate</tspan><tspan x="50" dy="19">L</tspan></text>
  <rect x="448" y="16" width="176" height="64" rx="12" fill="#3C3C3E" aria-hidden="true"/>
  <circle cx="468" cy="48" r="8" fill="#5B73AE" aria-hidden="true"/>
  <text x="482" y="44" font-family="-apple-system,BlinkMacSystemFont,'Segoe UI',sans-serif" font-size="15" font-weight="500" fill="#FFFFFF"><tspan x="482" dy="0">Funcion &quot;Quitar</tspan><tspan x="482" dy="19">du</tspan></text>
  <rect x="16" y="299" width="193" height="45" rx="12" fill="#3C3C3E" aria-hidden="true"/>
  <circle cx="36" cy="322" r="8" fill="#5B73AE" aria-hidden="true"/>
  <text x="50" y="327" font-family="-apple-system,BlinkMacSystemFont,'Segoe UI',sans-serif" font-size="15" font-weight="500" fill="#FFFFFF"><tspan x="50" dy="0">Linea de comandos</tspan></text>
  <rect x="431" y="299" width="193" height="45" rx="12" fill="#3C3C3E" aria-hidden="true"/>
  <circle cx="451" cy="322" r="8" fill="#5B73AE" aria-hidden="true"/>
  <text x="465" y="327" font-family="-apple-system,BlinkMacSystemFont,'Segoe UI',sans-serif" font-size="15" font-weight="500" fill="#FFFFFF"><tspan x="465" dy="0">Linea de comandos</tspan></text>
  <rect x="259" y="142" width="122" height="76" rx="38" fill="#1C1C1E" stroke="#5B73AE" stroke-width="3" aria-hidden="true"/>
  <text x="320" y="175" text-anchor="middle" font-family="-apple-system,BlinkMacSystemFont,'Segoe UI',sans-serif" font-size="17" font-weight="600" fill="#FFFFFF"><tspan x="320" dy="0">Eliminar</tspan><tspan x="320" dy="22">Lineas</tspan></text>
</svg>
