<?xml version="1.0" encoding="UTF-8"?>
<svg viewBox="0 0 640 360" xmlns="http://www.w3.org/2000/svg" role="img" aria-labelledby="svg-hubspoke4-6e034a-title svg-hubspoke4-6e034a-desc">
  <title id="svg-hubspoke4-6e034a-title">Four ways to remove duplicate lines compared</title>
  <desc id="svg-hubspoke4-6e034a-desc">Browser tool in two steps, spreadsheet dedup, sort -u command, and awk dedup command</desc>
  <line x1="320" y1="180" x2="167" y2="48" stroke="#5B73AE" stroke-width="3" stroke-linecap="round" aria-hidden="true"/>
  <line x1="320" y1="180" x2="431" y2="39" stroke="#5B73AE" stroke-width="3" stroke-linecap="round" aria-hidden="true"/>
  <line x1="320" y1="180" x2="192" y2="322" stroke="#5B73AE" stroke-width="3" stroke-linecap="round" aria-hidden="true"/>
  <line x1="320" y1="180" x2="474" y2="312" stroke="#5B73AE" stroke-width="3" stroke-linecap="round" aria-hidden="true"/>
  <rect x="16" y="16" width="151" height="64" rx="12" fill="#3C3C3E" aria-hidden="true"/>
  <circle cx="36" cy="48" r="8" fill="#5B73AE" aria-hidden="true"/>
  <text x="50" y="44" font-family="-apple-system,BlinkMacSystemFont,'Segoe UI',sans-serif" font-size="15" font-weight="500" fill="#FFFFFF"><tspan x="50" dy="0">This tool: 2</tspan><tspan x="50" dy="19">steps</tspan></text>
  <rect x="431" y="16" width="193" height="45" rx="12" fill="#3C3C3E" aria-hidden="true"/>
  <circle cx="451" cy="39" r="8" fill="#5B73AE" aria-hidden="true"/>
  <text x="465" y="44" font-family="-apple-system,BlinkMacSystemFont,'Segoe UI',sans-serif" font-size="15" font-weight="500" fill="#FFFFFF"><tspan x="465" dy="0">Spreadsheet dedup</tspan></text>
  <rect x="16" y="299" width="176" height="45" rx="12" fill="#3C3C3E" aria-hidden="true"/>
  <circle cx="36" cy="322" r="8" fill="#5B73AE" aria-hidden="true"/>
  <text x="50" y="327" font-family="-apple-system,BlinkMacSystemFont,'Segoe UI',sans-serif" font-size="15" font-weight="500" fill="#FFFFFF"><tspan x="50" dy="0">sort -u command</tspan></text>
  <rect x="474" y="280" width="150" height="64" rx="12" fill="#3C3C3E" aria-hidden="true"/>
  <circle cx="494" cy="312" r="8" fill="#5B73AE" aria-hidden="true"/>
  <text x="508" y="308" font-family="-apple-system,BlinkMacSystemFont,'Segoe UI',sans-serif" font-size="15" font-weight="500" fill="#FFFFFF"><tspan x="508" dy="0">awk !seen[]</tspan><tspan x="508" dy="19">command</tspan></text>
  <rect x="229" y="153" width="183" height="54" rx="27" fill="#1C1C1E" stroke="#5B73AE" stroke-width="3" aria-hidden="true"/>
  <text x="320" y="186" text-anchor="middle" font-family="-apple-system,BlinkMacSystemFont,'Segoe UI',sans-serif" font-size="17" font-weight="600" fill="#FFFFFF"><tspan x="320" dy="0">De-dup options</tspan></text>
</svg>
