<?xml version="1.0" encoding="UTF-8"?>
<svg viewBox="0 0 640 360" xmlns="http://www.w3.org/2000/svg" role="img" aria-labelledby="svg-hubspoke4-9fc68c-title svg-hubspoke4-9fc68c-desc">
  <title id="svg-hubspoke4-9fc68c-title">Other QR code content types</title>
  <desc id="svg-hubspoke4-9fc68c-desc">Four lesser-known types: email, phone, SMS, location</desc>
  <line x1="320" y1="180" x2="192" y2="39" stroke="#5B73AE" stroke-width="3" stroke-linecap="round" aria-hidden="true"/>
  <line x1="320" y1="180" x2="473" y2="39" stroke="#5B73AE" stroke-width="3" stroke-linecap="round" aria-hidden="true"/>
  <line x1="320" y1="180" x2="167" y2="322" stroke="#5B73AE" stroke-width="3" stroke-linecap="round" aria-hidden="true"/>
  <line x1="320" y1="180" x2="448" y2="322" stroke="#5B73AE" stroke-width="3" stroke-linecap="round" aria-hidden="true"/>
  <rect x="16" y="16" width="176" height="45" rx="12" fill="#3C3C3E" aria-hidden="true"/>
  <circle cx="36" cy="39" r="8" fill="#5B73AE" aria-hidden="true"/>
  <text x="50" y="44" font-family="-apple-system,BlinkMacSystemFont,'Segoe UI',sans-serif" font-size="15" font-weight="500" fill="#FFFFFF"><tspan x="50" dy="0">Email (mailto:)</tspan></text>
  <rect x="473" y="16" width="151" height="45" rx="12" fill="#3C3C3E" aria-hidden="true"/>
  <circle cx="493" cy="39" r="8" fill="#5B73AE" aria-hidden="true"/>
  <text x="507" y="44" font-family="-apple-system,BlinkMacSystemFont,'Segoe UI',sans-serif" font-size="15" font-weight="500" fill="#FFFFFF"><tspan x="507" dy="0">Phone (tel:)</tspan></text>
  <rect x="16" y="299" width="151" height="45" rx="12" fill="#3C3C3E" aria-hidden="true"/>
  <circle cx="36" cy="322" r="8" fill="#5B73AE" aria-hidden="true"/>
  <text x="50" y="327" font-family="-apple-system,BlinkMacSystemFont,'Segoe UI',sans-serif" font-size="15" font-weight="500" fill="#FFFFFF"><tspan x="50" dy="0">SMS (smsto:)</tspan></text>
  <rect x="448" y="299" width="176" height="45" rx="12" fill="#3C3C3E" aria-hidden="true"/>
  <circle cx="468" cy="322" r="8" fill="#5B73AE" aria-hidden="true"/>
  <text x="482" y="327" font-family="-apple-system,BlinkMacSystemFont,'Segoe UI',sans-serif" font-size="15" font-weight="500" fill="#FFFFFF"><tspan x="482" dy="0">Location (geo:)</tspan></text>
  <rect x="254" y="153" width="132" height="54" rx="27" fill="#1C1C1E" stroke="#5B73AE" stroke-width="3" aria-hidden="true"/>
  <text x="320" y="186" text-anchor="middle" font-family="-apple-system,BlinkMacSystemFont,'Segoe UI',sans-serif" font-size="17" font-weight="600" fill="#FFFFFF"><tspan x="320" dy="0">QR extras</tspan></text>
</svg>
