<?xml version="1.0" encoding="UTF-8"?>
<svg viewBox="0 0 640 360" xmlns="http://www.w3.org/2000/svg" role="img" aria-labelledby="svg-hubspoke4-7ef3f2-title svg-hubspoke4-7ef3f2-desc">
  <title id="svg-hubspoke4-7ef3f2-title">Cifras clave de la nucleosintesis estelar</title>
  <desc id="svg-hubspoke4-7ef3f2-desc">cadena pp, ciclo CNO, combustion de silicio y el punto final de hierro</desc>
  <line x1="320" y1="180" x2="192" y2="48" stroke="#5B73AE" stroke-width="3" stroke-linecap="round" aria-hidden="true"/>
  <line x1="320" y1="180" x2="448" y2="48" stroke="#5B73AE" stroke-width="3" stroke-linecap="round" aria-hidden="true"/>
  <line x1="320" y1="180" x2="166" y2="312" stroke="#5B73AE" stroke-width="3" stroke-linecap="round" aria-hidden="true"/>
  <line x1="320" y1="180" x2="440" y2="322" stroke="#5B73AE" stroke-width="3" stroke-linecap="round" aria-hidden="true"/>
  <rect x="16" y="16" width="176" height="64" rx="12" fill="#3C3C3E" aria-hidden="true"/>
  <circle cx="36" cy="48" r="8" fill="#5B73AE" aria-hidden="true"/>
  <text x="50" y="44" font-family="-apple-system,BlinkMacSystemFont,'Segoe UI',sans-serif" font-size="15" font-weight="500" fill="#FFFFFF"><tspan x="50" dy="0">Cadena pp: 26.7</tspan><tspan x="50" dy="19">MeV</tspan></text>
  <rect x="448" y="16" width="176" height="64" rx="12" fill="#3C3C3E" aria-hidden="true"/>
  <circle cx="468" cy="48" r="8" fill="#5B73AE" aria-hidden="true"/>
  <text x="482" y="44" font-family="-apple-system,BlinkMacSystemFont,'Segoe UI',sans-serif" font-size="15" font-weight="500" fill="#FFFFFF"><tspan x="482" dy="0">Ciclo CNO: 25.0</tspan><tspan x="482" dy="19">MeV</tspan></text>
  <rect x="16" y="280" width="150" height="64" rx="12" fill="#3C3C3E" aria-hidden="true"/>
  <circle cx="36" cy="312" r="8" fill="#5B73AE" aria-hidden="true"/>
  <text x="50" y="308" font-family="-apple-system,BlinkMacSystemFont,'Segoe UI',sans-serif" font-size="15" font-weight="500" fill="#FFFFFF"><tspan x="50" dy="0">Si: &gt;3 mil</tspan><tspan x="50" dy="19">millones K</tspan></text>
  <rect x="440" y="299" width="184" height="45" rx="12" fill="#3C3C3E" aria-hidden="true"/>
  <circle cx="460" cy="322" r="8" fill="#5B73AE" aria-hidden="true"/>
  <text x="474" y="327" font-family="-apple-system,BlinkMacSystemFont,'Segoe UI',sans-serif" font-size="15" font-weight="500" fill="#FFFFFF"><tspan x="474" dy="0">Final: hierro-56</tspan></text>
  <rect x="239" y="153" width="162" height="54" rx="27" fill="#1C1C1E" stroke="#5B73AE" stroke-width="3" aria-hidden="true"/>
  <text x="320" y="186" text-anchor="middle" font-family="-apple-system,BlinkMacSystemFont,'Segoe UI',sans-serif" font-size="17" font-weight="600" fill="#FFFFFF"><tspan x="320" dy="0">Cifras clave</tspan></text>
</svg>
