<?xml version="1.0" encoding="UTF-8"?>
<svg viewBox="0 0 640 360" xmlns="http://www.w3.org/2000/svg" role="img" aria-labelledby="svg-hubspoke4-4dcc11-title svg-hubspoke4-4dcc11-desc">
  <title id="svg-hubspoke4-4dcc11-title">Versus Neon Tower Rush</title>
  <desc id="svg-hubspoke4-4dcc11-desc">Versus Neon Tower Rush</desc>
  <line x1="320" y1="180" x2="200" y2="48" stroke="#5B73AE" stroke-width="3" stroke-linecap="round" aria-hidden="true"/>
  <line x1="320" y1="180" x2="473" y2="48" stroke="#5B73AE" stroke-width="3" stroke-linecap="round" aria-hidden="true"/>
  <line x1="320" y1="180" x2="200" y2="312" stroke="#5B73AE" stroke-width="3" stroke-linecap="round" aria-hidden="true"/>
  <line x1="320" y1="180" x2="456" y2="312" stroke="#5B73AE" stroke-width="3" stroke-linecap="round" aria-hidden="true"/>
  <rect x="16" y="16" width="184" height="64" rx="12" fill="#3C3C3E" aria-hidden="true"/>
  <circle cx="36" cy="48" r="8" fill="#5B73AE" aria-hidden="true"/>
  <text x="50" y="44" font-family="-apple-system,BlinkMacSystemFont,'Segoe UI',sans-serif" font-size="15" font-weight="500" fill="#FFFFFF"><tspan x="50" dy="0">Cyber Neon Maze:</tspan><tspan x="50" dy="19">~650</tspan></text>
  <rect x="473" y="16" width="151" height="64" rx="12" fill="#3C3C3E" aria-hidden="true"/>
  <circle cx="493" cy="48" r="8" fill="#5B73AE" aria-hidden="true"/>
  <text x="507" y="44" font-family="-apple-system,BlinkMacSystemFont,'Segoe UI',sans-serif" font-size="15" font-weight="500" fill="#FFFFFF"><tspan x="507" dy="0">Marble Maze:</tspan><tspan x="507" dy="19">Small can</tspan></text>
  <rect x="16" y="280" width="184" height="64" rx="12" fill="#3C3C3E" aria-hidden="true"/>
  <circle cx="36" cy="312" r="8" fill="#5B73AE" aria-hidden="true"/>
  <text x="50" y="308" font-family="-apple-system,BlinkMacSystemFont,'Segoe UI',sans-serif" font-size="15" font-weight="500" fill="#FFFFFF"><tspan x="50" dy="0">Neon Tower Rush:</tspan><tspan x="50" dy="19">~1.2</tspan></text>
  <rect x="456" y="280" width="168" height="64" rx="12" fill="#3C3C3E" aria-hidden="true"/>
  <circle cx="476" cy="312" r="8" fill="#5B73AE" aria-hidden="true"/>
  <text x="490" y="308" font-family="-apple-system,BlinkMacSystemFont,'Segoe UI',sans-serif" font-size="15" font-weight="500" fill="#FFFFFF"><tspan x="490" dy="0">Installed maze</tspan><tspan x="490" dy="19">app: 50</tspan></text>
  <rect x="249" y="142" width="142" height="76" rx="38" fill="#1C1C1E" stroke="#5B73AE" stroke-width="3" aria-hidden="true"/>
  <text x="320" y="175" text-anchor="middle" font-family="-apple-system,BlinkMacSystemFont,'Segoe UI',sans-serif" font-size="17" font-weight="600" fill="#FFFFFF"><tspan x="320" dy="0">Neon Tower</tspan><tspan x="320" dy="22">Rush</tspan></text>
</svg>
