<?xml version="1.0" encoding="UTF-8"?>
<svg viewBox="0 0 640 360" xmlns="http://www.w3.org/2000/svg" role="img" aria-labelledby="svg-hubspoke4-11ed24-title svg-hubspoke4-11ed24-desc">
  <title id="svg-hubspoke4-11ed24-title">Dimetrodon size figures</title>
  <desc id="svg-hubspoke4-11ed24-desc">Compare four published Dimetrodon size figures using the four points in this diagram.</desc>
  <line x1="320" y1="180" x2="166" y2="39" stroke="#7DAFA3" stroke-width="3" stroke-linecap="round" aria-hidden="true"/>
  <line x1="320" y1="180" x2="474" y2="39" stroke="#7DAFA3" stroke-width="3" stroke-linecap="round" aria-hidden="true"/>
  <line x1="320" y1="180" x2="166" y2="322" stroke="#7DAFA3" stroke-width="3" stroke-linecap="round" aria-hidden="true"/>
  <line x1="320" y1="180" x2="474" y2="322" stroke="#7DAFA3" stroke-width="3" stroke-linecap="round" aria-hidden="true"/>
  <rect x="16" y="16" width="150" height="45" rx="12" fill="#3C3C3E" aria-hidden="true"/>
  <circle cx="36" cy="39" r="8" fill="#7DAFA3" aria-hidden="true"/>
  <text x="50" y="44" font-family="-apple-system,BlinkMacSystemFont,'Segoe UI',sans-serif" font-size="15" font-weight="500" fill="#FFFFFF"><tspan x="50" dy="0">Len ~3.2 m</tspan></text>
  <rect x="474" y="16" width="150" height="45" rx="12" fill="#3C3C3E" aria-hidden="true"/>
  <circle cx="494" cy="39" r="8" fill="#7DAFA3" aria-hidden="true"/>
  <text x="508" y="44" font-family="-apple-system,BlinkMacSystemFont,'Segoe UI',sans-serif" font-size="15" font-weight="500" fill="#FFFFFF"><tspan x="508" dy="0">Sail ~1.8 m</tspan></text>
  <rect x="16" y="299" width="150" height="45" rx="12" fill="#3C3C3E" aria-hidden="true"/>
  <circle cx="36" cy="322" r="8" fill="#7DAFA3" aria-hidden="true"/>
  <text x="50" y="327" font-family="-apple-system,BlinkMacSystemFont,'Segoe UI',sans-serif" font-size="15" font-weight="500" fill="#FFFFFF"><tspan x="50" dy="0">~250 kg</tspan></text>
  <rect x="474" y="299" width="150" height="45" rx="12" fill="#3C3C3E" aria-hidden="true"/>
  <circle cx="494" cy="322" r="8" fill="#7DAFA3" aria-hidden="true"/>
  <text x="508" y="327" font-family="-apple-system,BlinkMacSystemFont,'Segoe UI',sans-serif" font-size="15" font-weight="500" fill="#FFFFFF"><tspan x="508" dy="0">295-272 Mya</tspan></text>
  <rect x="260" y="153" width="120" height="54" rx="27" fill="#1C1C1E" stroke="#7DAFA3" stroke-width="3" aria-hidden="true"/>
  <text x="320" y="186" text-anchor="middle" font-family="-apple-system,BlinkMacSystemFont,'Segoe UI',sans-serif" font-size="17" font-weight="600" fill="#FFFFFF"><tspan x="320" dy="0">Size</tspan></text>
</svg>
