<?xml version="1.0" encoding="UTF-8"?>
<svg viewBox="0 0 640 360" xmlns="http://www.w3.org/2000/svg" role="img" aria-labelledby="svg-hubspoke4-9f6c51-title svg-hubspoke4-9f6c51-desc">
  <title id="svg-hubspoke4-9f6c51-title">When to keep the HEIC original</title>
  <desc id="svg-hubspoke4-9f6c51-desc">Four cases where keeping HEIC avoids storage waste and quality loss</desc>
  <line x1="320" y1="180" x2="166" y2="39" stroke="#B3C5B0" stroke-width="3" stroke-linecap="round" aria-hidden="true"/>
  <line x1="320" y1="180" x2="440" y2="39" stroke="#B3C5B0" stroke-width="3" stroke-linecap="round" aria-hidden="true"/>
  <line x1="320" y1="180" x2="200" y2="322" stroke="#B3C5B0" stroke-width="3" stroke-linecap="round" aria-hidden="true"/>
  <line x1="320" y1="180" x2="431" y2="322" stroke="#B3C5B0" stroke-width="3" stroke-linecap="round" aria-hidden="true"/>
  <rect x="16" y="16" width="150" height="45" rx="12" fill="#3C3C3E" aria-hidden="true"/>
  <circle cx="36" cy="39" r="8" fill="#B3C5B0" aria-hidden="true"/>
  <text x="50" y="44" font-family="-apple-system,BlinkMacSystemFont,'Segoe UI',sans-serif" font-size="15" font-weight="500" fill="#FFFFFF"><tspan x="50" dy="0">iCloud sync</tspan></text>
  <rect x="440" y="16" width="184" height="45" rx="12" fill="#3C3C3E" aria-hidden="true"/>
  <circle cx="460" cy="39" r="8" fill="#B3C5B0" aria-hidden="true"/>
  <text x="474" y="44" font-family="-apple-system,BlinkMacSystemFont,'Segoe UI',sans-serif" font-size="15" font-weight="500" fill="#FFFFFF"><tspan x="474" dy="0">Live Photo / HDR</tspan></text>
  <rect x="16" y="299" width="184" height="45" rx="12" fill="#3C3C3E" aria-hidden="true"/>
  <circle cx="36" cy="322" r="8" fill="#B3C5B0" aria-hidden="true"/>
  <text x="50" y="327" font-family="-apple-system,BlinkMacSystemFont,'Segoe UI',sans-serif" font-size="15" font-weight="500" fill="#FFFFFF"><tspan x="50" dy="0">Round-trip edits</tspan></text>
  <rect x="431" y="299" width="193" height="45" rx="12" fill="#3C3C3E" aria-hidden="true"/>
  <circle cx="451" cy="322" r="8" fill="#B3C5B0" aria-hidden="true"/>
  <text x="465" y="327" font-family="-apple-system,BlinkMacSystemFont,'Segoe UI',sans-serif" font-size="15" font-weight="500" fill="#FFFFFF"><tspan x="465" dy="0">iPhone-only share</tspan></text>
  <rect x="254" y="153" width="132" height="54" rx="27" fill="#1C1C1E" stroke="#B3C5B0" stroke-width="3" aria-hidden="true"/>
  <text x="320" y="186" text-anchor="middle" font-family="-apple-system,BlinkMacSystemFont,'Segoe UI',sans-serif" font-size="17" font-weight="600" fill="#FFFFFF"><tspan x="320" dy="0">Keep HEIC</tspan></text>
</svg>
