<?xml version="1.0" encoding="UTF-8"?>
<svg viewBox="0 0 640 360" xmlns="http://www.w3.org/2000/svg" role="img" aria-labelledby="svg-hubspoke4-b039de-title svg-hubspoke4-b039de-desc">
  <title id="svg-hubspoke4-b039de-title">Vs Neon Tower Rush</title>
  <desc id="svg-hubspoke4-b039de-desc">Vs Neon Tower Rush</desc>
  <line x1="320" y1="180" x2="200" y2="48" stroke="#5B73AE" stroke-width="3" stroke-linecap="round" aria-hidden="true"/>
  <line x1="320" y1="180" x2="473" y2="48" stroke="#5B73AE" stroke-width="3" stroke-linecap="round" aria-hidden="true"/>
  <line x1="320" y1="180" x2="200" y2="312" stroke="#5B73AE" stroke-width="3" stroke-linecap="round" aria-hidden="true"/>
  <line x1="320" y1="180" x2="431" y2="322" stroke="#5B73AE" stroke-width="3" stroke-linecap="round" aria-hidden="true"/>
  <rect x="16" y="16" width="184" height="64" rx="12" fill="#3C3C3E" aria-hidden="true"/>
  <circle cx="36" cy="48" r="8" fill="#5B73AE" aria-hidden="true"/>
  <text x="50" y="44" font-family="-apple-system,BlinkMacSystemFont,'Segoe UI',sans-serif" font-size="15" font-weight="500" fill="#FFFFFF"><tspan x="50" dy="0">Cyber Neon Maze:</tspan><tspan x="50" dy="19">~650</tspan></text>
  <rect x="473" y="16" width="151" height="64" rx="12" fill="#3C3C3E" aria-hidden="true"/>
  <circle cx="493" cy="48" r="8" fill="#5B73AE" aria-hidden="true"/>
  <text x="507" y="44" font-family="-apple-system,BlinkMacSystemFont,'Segoe UI',sans-serif" font-size="15" font-weight="500" fill="#FFFFFF"><tspan x="507" dy="0">Marble Maze:</tspan><tspan x="507" dy="19">klein</tspan></text>
  <rect x="16" y="280" width="184" height="64" rx="12" fill="#3C3C3E" aria-hidden="true"/>
  <circle cx="36" cy="312" r="8" fill="#5B73AE" aria-hidden="true"/>
  <text x="50" y="308" font-family="-apple-system,BlinkMacSystemFont,'Segoe UI',sans-serif" font-size="15" font-weight="500" fill="#FFFFFF"><tspan x="50" dy="0">Neon Tower Rush:</tspan><tspan x="50" dy="19">~1.2</tspan></text>
  <rect x="431" y="299" width="193" height="45" rx="12" fill="#3C3C3E" aria-hidden="true"/>
  <circle cx="451" cy="322" r="8" fill="#5B73AE" aria-hidden="true"/>
  <text x="465" y="327" font-family="-apple-system,BlinkMacSystemFont,'Segoe UI',sans-serif" font-size="15" font-weight="500" fill="#FFFFFF"><tspan x="465" dy="0">Installierte App:</tspan></text>
  <rect x="234" y="153" width="173" height="54" rx="27" fill="#1C1C1E" stroke="#5B73AE" stroke-width="3" aria-hidden="true"/>
  <text x="320" y="186" text-anchor="middle" font-family="-apple-system,BlinkMacSystemFont,'Segoe UI',sans-serif" font-size="17" font-weight="600" fill="#FFFFFF"><tspan x="320" dy="0">Vs Neon Tower</tspan></text>
</svg>
