<?xml version="1.0" encoding="UTF-8"?>
<svg viewBox="0 0 640 360" xmlns="http://www.w3.org/2000/svg" role="img" aria-labelledby="svg-hubspoke4-05acd5-title svg-hubspoke4-05acd5-desc">
  <title id="svg-hubspoke4-05acd5-title">Como se compara Expense Tracker</title>
  <desc id="svg-hubspoke4-05acd5-desc">Como se compara Expense Tracker</desc>
  <line x1="320" y1="180" x2="175" y2="48" stroke="#5B73AE" stroke-width="3" stroke-linecap="round" aria-hidden="true"/>
  <line x1="320" y1="180" x2="465" y2="48" stroke="#5B73AE" stroke-width="3" stroke-linecap="round" aria-hidden="true"/>
  <line x1="320" y1="180" x2="200" y2="322" stroke="#5B73AE" stroke-width="3" stroke-linecap="round" aria-hidden="true"/>
  <line x1="320" y1="180" x2="473" y2="312" stroke="#5B73AE" stroke-width="3" stroke-linecap="round" aria-hidden="true"/>
  <rect x="16" y="16" width="159" height="64" rx="12" fill="#3C3C3E" aria-hidden="true"/>
  <circle cx="36" cy="48" r="8" fill="#5B73AE" aria-hidden="true"/>
  <text x="50" y="44" font-family="-apple-system,BlinkMacSystemFont,'Segoe UI',sans-serif" font-size="15" font-weight="500" fill="#FFFFFF"><tspan x="50" dy="0">Donde van tus</tspan><tspan x="50" dy="19">datos:</tspan></text>
  <rect x="465" y="16" width="159" height="64" rx="12" fill="#3C3C3E" aria-hidden="true"/>
  <circle cx="485" cy="48" r="8" fill="#5B73AE" aria-hidden="true"/>
  <text x="499" y="44" font-family="-apple-system,BlinkMacSystemFont,'Segoe UI',sans-serif" font-size="15" font-weight="500" fill="#FFFFFF"><tspan x="499" dy="0">Instalacion o</tspan><tspan x="499" dy="19">cuenta</tspan></text>
  <rect x="16" y="299" width="184" height="45" rx="12" fill="#3C3C3E" aria-hidden="true"/>
  <circle cx="36" cy="322" r="8" fill="#5B73AE" aria-hidden="true"/>
  <text x="50" y="327" font-family="-apple-system,BlinkMacSystemFont,'Segoe UI',sans-serif" font-size="15" font-weight="500" fill="#FFFFFF"><tspan x="50" dy="0">Limite tipico de</tspan></text>
  <rect x="473" y="280" width="151" height="64" rx="12" fill="#3C3C3E" aria-hidden="true"/>
  <circle cx="493" cy="312" r="8" fill="#5B73AE" aria-hidden="true"/>
  <text x="507" y="308" font-family="-apple-system,BlinkMacSystemFont,'Segoe UI',sans-serif" font-size="15" font-weight="500" fill="#FFFFFF"><tspan x="507" dy="0">Categorias y</tspan><tspan x="507" dy="19">graficos</tspan></text>
  <rect x="260" y="142" width="120" height="76" rx="38" fill="#1C1C1E" stroke="#5B73AE" stroke-width="3" aria-hidden="true"/>
  <text x="320" y="175" text-anchor="middle" font-family="-apple-system,BlinkMacSystemFont,'Segoe UI',sans-serif" font-size="17" font-weight="600" fill="#FFFFFF"><tspan x="320" dy="0">Como se</tspan><tspan x="320" dy="22">compara</tspan></text>
</svg>
