<?xml version="1.0" encoding="UTF-8"?>
<svg viewBox="0 0 640 360" xmlns="http://www.w3.org/2000/svg" role="img" aria-labelledby="svg-hubspoke4-6a12b9-title svg-hubspoke4-6a12b9-desc">
  <title id="svg-hubspoke4-6a12b9-title">Legacy ZIP 2.0 password: four things to know</title>
  <desc id="svg-hubspoke4-6a12b9-desc">ZIP 2.0 (ZipCrypto): when online remover wins fast, when it slows, how to identify, what to do after</desc>
  <line x1="320" y1="180" x2="209" y2="39" stroke="#7DAFA3" stroke-width="3" stroke-linecap="round" aria-hidden="true"/>
  <line x1="320" y1="180" x2="465" y2="48" stroke="#7DAFA3" stroke-width="3" stroke-linecap="round" aria-hidden="true"/>
  <line x1="320" y1="180" x2="192" y2="312" stroke="#7DAFA3" stroke-width="3" stroke-linecap="round" aria-hidden="true"/>
  <line x1="320" y1="180" x2="465" y2="312" stroke="#7DAFA3" stroke-width="3" stroke-linecap="round" aria-hidden="true"/>
  <rect x="16" y="16" width="193" height="45" rx="12" fill="#3C3C3E" aria-hidden="true"/>
  <circle cx="36" cy="39" r="8" fill="#7DAFA3" aria-hidden="true"/>
  <text x="50" y="44" font-family="-apple-system,BlinkMacSystemFont,'Segoe UI',sans-serif" font-size="15" font-weight="500" fill="#FFFFFF"><tspan x="50" dy="0">Remover wins fast</tspan></text>
  <rect x="465" y="16" width="159" height="64" rx="12" fill="#3C3C3E" aria-hidden="true"/>
  <circle cx="485" cy="48" r="8" fill="#7DAFA3" aria-hidden="true"/>
  <text x="499" y="44" font-family="-apple-system,BlinkMacSystemFont,'Segoe UI',sans-serif" font-size="15" font-weight="500" fill="#FFFFFF"><tspan x="499" dy="0">Remover slows</tspan><tspan x="499" dy="19">down</tspan></text>
  <rect x="16" y="280" width="176" height="64" rx="12" fill="#3C3C3E" aria-hidden="true"/>
  <circle cx="36" cy="312" r="8" fill="#7DAFA3" aria-hidden="true"/>
  <text x="50" y="308" font-family="-apple-system,BlinkMacSystemFont,'Segoe UI',sans-serif" font-size="15" font-weight="500" fill="#FFFFFF"><tspan x="50" dy="0">Spot: ZipCrypto</tspan><tspan x="50" dy="19">tag</tspan></text>
  <rect x="465" y="280" width="159" height="64" rx="12" fill="#3C3C3E" aria-hidden="true"/>
  <circle cx="485" cy="312" r="8" fill="#7DAFA3" aria-hidden="true"/>
  <text x="499" y="308" font-family="-apple-system,BlinkMacSystemFont,'Segoe UI',sans-serif" font-size="15" font-weight="500" fill="#FFFFFF"><tspan x="499" dy="0">After: re-zip</tspan><tspan x="499" dy="19">AES-256</tspan></text>
  <rect x="259" y="142" width="122" height="76" rx="38" fill="#1C1C1E" stroke="#7DAFA3" stroke-width="3" aria-hidden="true"/>
  <text x="320" y="175" text-anchor="middle" font-family="-apple-system,BlinkMacSystemFont,'Segoe UI',sans-serif" font-size="17" font-weight="600" fill="#FFFFFF"><tspan x="320" dy="0">ZIP 2.0</tspan><tspan x="320" dy="22">(legacy)</tspan></text>
</svg>
