<?xml version="1.0" encoding="UTF-8"?>
<svg viewBox="0 0 640 360" xmlns="http://www.w3.org/2000/svg" role="img" aria-labelledby="svg-hubspoke4-1c6d26-title svg-hubspoke4-1c6d26-desc">
  <title id="svg-hubspoke4-1c6d26-title">Ankylosaurus key figures</title>
  <desc id="svg-hubspoke4-1c6d26-desc">Ankylosaurus key figures at a glance: length about 6.25 m, weight about 4.8 tonnes, hip height about 1.7 m, lived 68 to 66 million years ago.</desc>
  <line x1="320" y1="180" x2="184" y2="39" stroke="#5B73AE" stroke-width="3" stroke-linecap="round" aria-hidden="true"/>
  <line x1="320" y1="180" x2="465" y2="39" stroke="#5B73AE" stroke-width="3" stroke-linecap="round" aria-hidden="true"/>
  <line x1="320" y1="180" x2="209" y2="322" stroke="#5B73AE" stroke-width="3" stroke-linecap="round" aria-hidden="true"/>
  <line x1="320" y1="180" x2="448" y2="322" stroke="#5B73AE" stroke-width="3" stroke-linecap="round" aria-hidden="true"/>
  <rect x="16" y="16" width="168" height="45" rx="12" fill="#3C3C3E" aria-hidden="true"/>
  <circle cx="36" cy="39" r="8" fill="#5B73AE" aria-hidden="true"/>
  <text x="50" y="44" font-family="-apple-system,BlinkMacSystemFont,'Segoe UI',sans-serif" font-size="15" font-weight="500" fill="#FFFFFF"><tspan x="50" dy="0">Length ~6.25 m</tspan></text>
  <rect x="465" y="16" width="159" height="45" rx="12" fill="#3C3C3E" aria-hidden="true"/>
  <circle cx="485" cy="39" r="8" fill="#5B73AE" aria-hidden="true"/>
  <text x="499" y="44" font-family="-apple-system,BlinkMacSystemFont,'Segoe UI',sans-serif" font-size="15" font-weight="500" fill="#FFFFFF"><tspan x="499" dy="0">Weight ~4.8 t</tspan></text>
  <rect x="16" y="299" width="193" height="45" rx="12" fill="#3C3C3E" aria-hidden="true"/>
  <circle cx="36" cy="322" r="8" fill="#5B73AE" aria-hidden="true"/>
  <text x="50" y="327" font-family="-apple-system,BlinkMacSystemFont,'Segoe UI',sans-serif" font-size="15" font-weight="500" fill="#FFFFFF"><tspan x="50" dy="0">Hip height ~1.7 m</tspan></text>
  <rect x="448" y="299" width="176" height="45" rx="12" fill="#3C3C3E" aria-hidden="true"/>
  <circle cx="468" cy="322" r="8" fill="#5B73AE" aria-hidden="true"/>
  <text x="482" y="327" font-family="-apple-system,BlinkMacSystemFont,'Segoe UI',sans-serif" font-size="15" font-weight="500" fill="#FFFFFF"><tspan x="482" dy="0">Lived 68-66 Mya</tspan></text>
  <rect x="239" y="153" width="162" height="54" rx="27" fill="#1C1C1E" stroke="#5B73AE" stroke-width="3" aria-hidden="true"/>
  <text x="320" y="186" text-anchor="middle" font-family="-apple-system,BlinkMacSystemFont,'Segoe UI',sans-serif" font-size="17" font-weight="600" fill="#FFFFFF"><tspan x="320" dy="0">Ankylosaurus</tspan></text>
</svg>
