<?xml version="1.0" encoding="UTF-8"?>
<svg viewBox="0 0 640 360" xmlns="http://www.w3.org/2000/svg" role="img" aria-labelledby="svg-hubspoke4-5035c6-title svg-hubspoke4-5035c6-desc">
  <title id="svg-hubspoke4-5035c6-title">Versus Pixel Pipeline Reflex</title>
  <desc id="svg-hubspoke4-5035c6-desc">Versus Pixel Pipeline Reflex</desc>
  <line x1="320" y1="180" x2="192" y2="48" stroke="#5B73AE" stroke-width="3" stroke-linecap="round" aria-hidden="true"/>
  <line x1="320" y1="180" x2="440" y2="48" stroke="#5B73AE" stroke-width="3" stroke-linecap="round" aria-hidden="true"/>
  <line x1="320" y1="180" x2="184" y2="312" stroke="#5B73AE" stroke-width="3" stroke-linecap="round" aria-hidden="true"/>
  <line x1="320" y1="180" x2="465" y2="312" stroke="#5B73AE" stroke-width="3" stroke-linecap="round" aria-hidden="true"/>
  <rect x="16" y="16" width="176" height="64" rx="12" fill="#3C3C3E" aria-hidden="true"/>
  <circle cx="36" cy="48" r="8" fill="#5B73AE" aria-hidden="true"/>
  <text x="50" y="44" font-family="-apple-system,BlinkMacSystemFont,'Segoe UI',sans-serif" font-size="15" font-weight="500" fill="#FFFFFF"><tspan x="50" dy="0">Neural Particle</tspan><tspan x="50" dy="19">Life:</tspan></text>
  <rect x="440" y="16" width="184" height="64" rx="12" fill="#3C3C3E" aria-hidden="true"/>
  <circle cx="460" cy="48" r="8" fill="#5B73AE" aria-hidden="true"/>
  <text x="474" y="44" font-family="-apple-system,BlinkMacSystemFont,'Segoe UI',sans-serif" font-size="15" font-weight="500" fill="#FFFFFF"><tspan x="474" dy="0">Procedural Horde</tspan><tspan x="474" dy="19">Game:</tspan></text>
  <rect x="16" y="280" width="168" height="64" rx="12" fill="#3C3C3E" aria-hidden="true"/>
  <circle cx="36" cy="312" r="8" fill="#5B73AE" aria-hidden="true"/>
  <text x="50" y="308" font-family="-apple-system,BlinkMacSystemFont,'Segoe UI',sans-serif" font-size="15" font-weight="500" fill="#FFFFFF"><tspan x="50" dy="0">Pixel Pipeline</tspan><tspan x="50" dy="19">Reflex:</tspan></text>
  <rect x="465" y="280" width="159" height="64" rx="12" fill="#3C3C3E" aria-hidden="true"/>
  <circle cx="485" cy="312" r="8" fill="#5B73AE" aria-hidden="true"/>
  <text x="499" y="308" font-family="-apple-system,BlinkMacSystemFont,'Segoe UI',sans-serif" font-size="15" font-weight="500" fill="#FFFFFF"><tspan x="499" dy="0">Desktop ALife</tspan><tspan x="499" dy="19">(NetLogo</tspan></text>
  <rect x="229" y="142" width="183" height="76" rx="38" fill="#1C1C1E" stroke="#5B73AE" stroke-width="3" aria-hidden="true"/>
  <text x="320" y="175" text-anchor="middle" font-family="-apple-system,BlinkMacSystemFont,'Segoe UI',sans-serif" font-size="17" font-weight="600" fill="#FFFFFF"><tspan x="320" dy="0">Pixel Pipeline</tspan><tspan x="320" dy="22">R</tspan></text>
</svg>
