<?xml version="1.0" encoding="UTF-8"?>
<svg viewBox="0 0 640 360" xmlns="http://www.w3.org/2000/svg" role="img" aria-labelledby="svg-hubspoke4-3bd94b-title svg-hubspoke4-3bd94b-desc">
  <title id="svg-hubspoke4-3bd94b-title">Cuando ejecutar una prueba de LCD es la decision correcta</title>
  <desc id="svg-hubspoke4-3bd94b-desc">Cuando ejecutar una prueba de LCD es la decision correcta: Antes de que cierre la, Antes de aceptar una, Antes de</desc>
  <line x1="320" y1="180" x2="167" y2="48" stroke="#D9C7A3" stroke-width="3" stroke-linecap="round" aria-hidden="true"/>
  <line x1="320" y1="180" x2="440" y2="48" stroke="#D9C7A3" stroke-width="3" stroke-linecap="round" aria-hidden="true"/>
  <line x1="320" y1="180" x2="209" y2="312" stroke="#D9C7A3" stroke-width="3" stroke-linecap="round" aria-hidden="true"/>
  <line x1="320" y1="180" x2="448" y2="312" stroke="#D9C7A3" stroke-width="3" stroke-linecap="round" aria-hidden="true"/>
  <rect x="16" y="16" width="151" height="64" rx="12" fill="#3C3C3E" aria-hidden="true"/>
  <circle cx="36" cy="48" r="8" fill="#D9C7A3" aria-hidden="true"/>
  <text x="50" y="44" font-family="-apple-system,BlinkMacSystemFont,'Segoe UI',sans-serif" font-size="15" font-weight="500" fill="#FFFFFF"><tspan x="50" dy="0">Antes de que</tspan><tspan x="50" dy="19">cierre la</tspan></text>
  <rect x="440" y="16" width="184" height="64" rx="12" fill="#3C3C3E" aria-hidden="true"/>
  <circle cx="460" cy="48" r="8" fill="#D9C7A3" aria-hidden="true"/>
  <text x="474" y="44" font-family="-apple-system,BlinkMacSystemFont,'Segoe UI',sans-serif" font-size="15" font-weight="500" fill="#FFFFFF"><tspan x="474" dy="0">Antes de aceptar</tspan><tspan x="474" dy="19">una</tspan></text>
  <rect x="16" y="280" width="193" height="64" rx="12" fill="#3C3C3E" aria-hidden="true"/>
  <circle cx="36" cy="312" r="8" fill="#D9C7A3" aria-hidden="true"/>
  <text x="50" y="308" font-family="-apple-system,BlinkMacSystemFont,'Segoe UI',sans-serif" font-size="15" font-weight="500" fill="#FFFFFF"><tspan x="50" dy="0">Antes de quedarse</tspan><tspan x="50" dy="19">con</tspan></text>
  <rect x="448" y="280" width="176" height="64" rx="12" fill="#3C3C3E" aria-hidden="true"/>
  <circle cx="468" cy="312" r="8" fill="#D9C7A3" aria-hidden="true"/>
  <text x="482" y="308" font-family="-apple-system,BlinkMacSystemFont,'Segoe UI',sans-serif" font-size="15" font-weight="500" fill="#FFFFFF"><tspan x="482" dy="0">Cuando sospecha</tspan><tspan x="482" dy="19">de un</tspan></text>
  <rect x="234" y="153" width="173" height="54" rx="27" fill="#1C1C1E" stroke="#D9C7A3" stroke-width="3" aria-hidden="true"/>
  <text x="320" y="186" text-anchor="middle" font-family="-apple-system,BlinkMacSystemFont,'Segoe UI',sans-serif" font-size="17" font-weight="600" fill="#FFFFFF"><tspan x="320" dy="0">Ejecutar test</tspan></text>
</svg>
