<?xml version="1.0" encoding="UTF-8"?>
<svg viewBox="0 0 640 360" xmlns="http://www.w3.org/2000/svg" role="img" aria-labelledby="svg-hubspoke4-633887-title svg-hubspoke4-633887-desc">
  <title id="svg-hubspoke4-633887-title">Uranus tilt key figures</title>
  <desc id="svg-hubspoke4-633887-desc">Uranus tilt key figures: axial tilt about 97.8 degrees, orbital period about 84 years, radius about 25,559 km, versus Earth obliquity of 23.44 degrees.</desc>
  <style>
    :root{--p:#5B73AE;--card:#F0F0F2;--ink:#3C3C3E;--onfill:#FFFFFF}
    text{font-family:-apple-system,BlinkMacSystemFont,'Segoe UI',sans-serif}
    .p{fill:var(--p)}.card{fill:var(--card);stroke:var(--ink);stroke-width:1}
    .ink{fill:var(--ink)}.onfill{fill:var(--onfill)}.ln{stroke:var(--p);stroke-width:3;fill:none}
    @media (prefers-color-scheme: dark){.card{stroke:var(--onfill)}}
  </style>
  <line class="ln" x1="245" y1="130" x2="115" y2="72" aria-hidden="true"/>
  <line class="ln" x1="395" y1="130" x2="525" y2="72" aria-hidden="true"/>
  <line class="ln" x1="245" y1="230" x2="115" y2="288" aria-hidden="true"/>
  <line class="ln" x1="395" y1="230" x2="525" y2="288" aria-hidden="true"/>
  <rect class="card" x="30" y="30" width="180" height="72" rx="12" aria-hidden="true"/>
  <circle class="p" cx="58" cy="66" r="12" aria-hidden="true"/>
  <text class="ink" x="80" y="72" font-size="16">Axial tilt ~97.8 deg</text>
  <rect class="card" x="430" y="30" width="180" height="72" rx="12" aria-hidden="true"/>
  <circle class="p" cx="458" cy="66" r="12" aria-hidden="true"/>
  <text class="ink" x="480" y="72" font-size="16">Orbital period ~84 yr</text>
  <rect class="card" x="30" y="258" width="180" height="72" rx="12" aria-hidden="true"/>
  <circle class="p" cx="58" cy="294" r="12" aria-hidden="true"/>
  <text class="ink" x="80" y="300" font-size="16">Radius ~25,559 km</text>
  <rect class="card" x="430" y="258" width="180" height="72" rx="12" aria-hidden="true"/>
  <circle class="p" cx="458" cy="294" r="12" aria-hidden="true"/>
  <text class="ink" x="480" y="300" font-size="16">vs Earth 23.44 deg</text>
  <circle class="p" cx="320" cy="180" r="60" aria-hidden="true"/>
  <text class="onfill" x="320" y="187" text-anchor="middle" font-size="18" font-weight="600">Uranus tilt</text>
</svg>
