<?xml version="1.0" encoding="UTF-8"?>
<svg viewBox="0 0 640 360" xmlns="http://www.w3.org/2000/svg" role="img" aria-labelledby="svg-hubspoke4-667dd8-title svg-hubspoke4-667dd8-desc">
  <title id="svg-hubspoke4-667dd8-title">What the keyboard test does not measure</title>
  <desc id="svg-hubspoke4-667dd8-desc">Hub: four hardware metrics beyond a browser keyboard test</desc>
  <line x1="320" y1="180" x2="167" y2="39" stroke="#D9C7A3" stroke-width="3" stroke-linecap="round" aria-hidden="true"/>
  <line x1="320" y1="180" x2="431" y2="39" stroke="#D9C7A3" stroke-width="3" stroke-linecap="round" aria-hidden="true"/>
  <line x1="320" y1="180" x2="184" y2="322" stroke="#D9C7A3" stroke-width="3" stroke-linecap="round" aria-hidden="true"/>
  <line x1="320" y1="180" x2="448" y2="322" stroke="#D9C7A3" stroke-width="3" stroke-linecap="round" aria-hidden="true"/>
  <rect x="16" y="16" width="151" height="45" rx="12" fill="#3C3C3E" aria-hidden="true"/>
  <circle cx="36" cy="39" r="8" fill="#D9C7A3" aria-hidden="true"/>
  <text x="50" y="44" font-family="-apple-system,BlinkMacSystemFont,'Segoe UI',sans-serif" font-size="15" font-weight="500" fill="#FFFFFF"><tspan x="50" dy="0">Polling rate</tspan></text>
  <rect x="431" y="16" width="193" height="45" rx="12" fill="#3C3C3E" aria-hidden="true"/>
  <circle cx="451" cy="39" r="8" fill="#D9C7A3" aria-hidden="true"/>
  <text x="465" y="44" font-family="-apple-system,BlinkMacSystemFont,'Segoe UI',sans-serif" font-size="15" font-weight="500" fill="#FFFFFF"><tspan x="465" dy="0">Key-press latency</tspan></text>
  <rect x="16" y="299" width="168" height="45" rx="12" fill="#3C3C3E" aria-hidden="true"/>
  <circle cx="36" cy="322" r="8" fill="#D9C7A3" aria-hidden="true"/>
  <text x="50" y="327" font-family="-apple-system,BlinkMacSystemFont,'Segoe UI',sans-serif" font-size="15" font-weight="500" fill="#FFFFFF"><tspan x="50" dy="0">N-key rollover</tspan></text>
  <rect x="448" y="299" width="176" height="45" rx="12" fill="#3C3C3E" aria-hidden="true"/>
  <circle cx="468" cy="322" r="8" fill="#D9C7A3" aria-hidden="true"/>
  <text x="482" y="327" font-family="-apple-system,BlinkMacSystemFont,'Segoe UI',sans-serif" font-size="15" font-weight="500" fill="#FFFFFF"><tspan x="482" dy="0">Actuation force</tspan></text>
  <rect x="234" y="153" width="173" height="54" rx="27" fill="#1C1C1E" stroke="#D9C7A3" stroke-width="3" aria-hidden="true"/>
  <text x="320" y="186" text-anchor="middle" font-family="-apple-system,BlinkMacSystemFont,'Segoe UI',sans-serif" font-size="17" font-weight="600" fill="#FFFFFF"><tspan x="320" dy="0">Keyboard Test</tspan></text>
</svg>
