<?xml version="1.0" encoding="UTF-8"?>
<svg viewBox="0 0 640 360" xmlns="http://www.w3.org/2000/svg" role="img" aria-labelledby="svg-hubspoke4-9820e7-title svg-hubspoke4-9820e7-desc">
  <title id="svg-hubspoke4-9820e7-title">Light Cone 3D Explorer</title>
  <desc id="svg-hubspoke4-9820e7-desc">Four key figures for Light Cone 3D Explorer</desc>
  <line x1="320" y1="180" x2="209" y2="39" stroke="#5B73AE" stroke-width="3" stroke-linecap="round" aria-hidden="true"/>
  <line x1="320" y1="180" x2="431" y2="39" stroke="#5B73AE" stroke-width="3" stroke-linecap="round" aria-hidden="true"/>
  <line x1="320" y1="180" x2="184" y2="322" stroke="#5B73AE" stroke-width="3" stroke-linecap="round" aria-hidden="true"/>
  <line x1="320" y1="180" x2="440" y2="322" stroke="#5B73AE" stroke-width="3" stroke-linecap="round" aria-hidden="true"/>
  <rect x="16" y="16" width="193" height="45" rx="12" fill="#3C3C3E" aria-hidden="true"/>
  <circle cx="36" cy="39" r="8" fill="#5B73AE" aria-hidden="true"/>
  <text x="50" y="44" font-family="-apple-system,BlinkMacSystemFont,'Segoe UI',sans-serif" font-size="15" font-weight="500" fill="#FFFFFF"><tspan x="50" dy="0">45 deg null cones</tspan></text>
  <rect x="431" y="16" width="193" height="45" rx="12" fill="#3C3C3E" aria-hidden="true"/>
  <circle cx="451" cy="39" r="8" fill="#5B73AE" aria-hidden="true"/>
  <text x="465" y="44" font-family="-apple-system,BlinkMacSystemFont,'Segoe UI',sans-serif" font-size="15" font-weight="500" fill="#FFFFFF"><tspan x="465" dy="0">Elsewhere markers</tspan></text>
  <rect x="16" y="299" width="168" height="45" rx="12" fill="#3C3C3E" aria-hidden="true"/>
  <circle cx="36" cy="322" r="8" fill="#5B73AE" aria-hidden="true"/>
  <text x="50" y="327" font-family="-apple-system,BlinkMacSystemFont,'Segoe UI',sans-serif" font-size="15" font-weight="500" fill="#FFFFFF"><tspan x="50" dy="0">x/ct scrubbers</tspan></text>
  <rect x="440" y="299" width="184" height="45" rx="12" fill="#3C3C3E" aria-hidden="true"/>
  <circle cx="460" cy="322" r="8" fill="#5B73AE" aria-hidden="true"/>
  <text x="474" y="327" font-family="-apple-system,BlinkMacSystemFont,'Segoe UI',sans-serif" font-size="15" font-weight="500" fill="#FFFFFF"><tspan x="474" dy="0">Snap-to-null ray</tspan></text>
  <rect x="249" y="153" width="142" height="54" rx="27" fill="#1C1C1E" stroke="#5B73AE" stroke-width="3" aria-hidden="true"/>
  <text x="320" y="186" text-anchor="middle" font-family="-apple-system,BlinkMacSystemFont,'Segoe UI',sans-serif" font-size="17" font-weight="600" fill="#FFFFFF"><tspan x="320" dy="0">Light Cone</tspan></text>
</svg>
