<?xml version="1.0" encoding="UTF-8"?>
<svg viewBox="0 0 640 360" xmlns="http://www.w3.org/2000/svg" role="img" aria-labelledby="svg-hubspoke4-adc5e1-title svg-hubspoke4-adc5e1-desc">
  <title id="svg-hubspoke4-adc5e1-title">S2 orbit around Sagittarius A*</title>
  <desc id="svg-hubspoke4-adc5e1-desc">Four published S2 orbit values: period, semi-major axis, eccentricity, pericenter.</desc>
  <line x1="320" y1="180" x2="209" y2="39" stroke="#5B73AE" stroke-width="3" stroke-linecap="round" aria-hidden="true"/>
  <line x1="320" y1="180" x2="473" y2="39" stroke="#5B73AE" stroke-width="3" stroke-linecap="round" aria-hidden="true"/>
  <line x1="320" y1="180" x2="166" y2="322" stroke="#5B73AE" stroke-width="3" stroke-linecap="round" aria-hidden="true"/>
  <line x1="320" y1="180" x2="448" y2="312" stroke="#5B73AE" stroke-width="3" stroke-linecap="round" aria-hidden="true"/>
  <rect x="16" y="16" width="193" height="45" rx="12" fill="#3C3C3E" aria-hidden="true"/>
  <circle cx="36" cy="39" r="8" fill="#5B73AE" aria-hidden="true"/>
  <text x="50" y="44" font-family="-apple-system,BlinkMacSystemFont,'Segoe UI',sans-serif" font-size="15" font-weight="500" fill="#FFFFFF"><tspan x="50" dy="0">Period 16.0518 yr</tspan></text>
  <rect x="473" y="16" width="151" height="45" rx="12" fill="#3C3C3E" aria-hidden="true"/>
  <circle cx="493" cy="39" r="8" fill="#5B73AE" aria-hidden="true"/>
  <text x="507" y="44" font-family="-apple-system,BlinkMacSystemFont,'Segoe UI',sans-serif" font-size="15" font-weight="500" fill="#FFFFFF"><tspan x="507" dy="0">Axis ~970 AU</tspan></text>
  <rect x="16" y="299" width="150" height="45" rx="12" fill="#3C3C3E" aria-hidden="true"/>
  <circle cx="36" cy="322" r="8" fill="#5B73AE" aria-hidden="true"/>
  <text x="50" y="327" font-family="-apple-system,BlinkMacSystemFont,'Segoe UI',sans-serif" font-size="15" font-weight="500" fill="#FFFFFF"><tspan x="50" dy="0">Ecc ~0.88</tspan></text>
  <rect x="448" y="280" width="176" height="64" rx="12" fill="#3C3C3E" aria-hidden="true"/>
  <circle cx="468" cy="312" r="8" fill="#5B73AE" aria-hidden="true"/>
  <text x="482" y="308" font-family="-apple-system,BlinkMacSystemFont,'Segoe UI',sans-serif" font-size="15" font-weight="500" fill="#FFFFFF"><tspan x="482" dy="0">Pericenter ~120</tspan><tspan x="482" dy="19">AU</tspan></text>
  <rect x="259" y="153" width="122" height="54" rx="27" fill="#1C1C1E" stroke="#5B73AE" stroke-width="3" aria-hidden="true"/>
  <text x="320" y="186" text-anchor="middle" font-family="-apple-system,BlinkMacSystemFont,'Segoe UI',sans-serif" font-size="17" font-weight="600" fill="#FFFFFF"><tspan x="320" dy="0">S2 orbit</tspan></text>
</svg>
