<?xml version="1.0" encoding="UTF-8"?>
<svg viewBox="0 0 640 360" xmlns="http://www.w3.org/2000/svg" role="img" aria-labelledby="svg-hubspoke4-483638-title svg-hubspoke4-483638-desc">
  <title id="svg-hubspoke4-483638-title">Stygimoloch at a glance</title>
  <desc id="svg-hubspoke4-483638-desc">Four key figures for Stygimoloch</desc>
  <line x1="320" y1="180" x2="166" y2="39" stroke="#B3C5B0" stroke-width="3" stroke-linecap="round" aria-hidden="true"/>
  <line x1="320" y1="180" x2="448" y2="39" stroke="#B3C5B0" stroke-width="3" stroke-linecap="round" aria-hidden="true"/>
  <line x1="320" y1="180" x2="175" y2="322" stroke="#B3C5B0" stroke-width="3" stroke-linecap="round" aria-hidden="true"/>
  <line x1="320" y1="180" x2="474" y2="322" stroke="#B3C5B0" stroke-width="3" stroke-linecap="round" aria-hidden="true"/>
  <rect x="16" y="16" width="150" height="45" rx="12" fill="#3C3C3E" aria-hidden="true"/>
  <circle cx="36" cy="39" r="8" fill="#B3C5B0" aria-hidden="true"/>
  <text x="50" y="44" font-family="-apple-system,BlinkMacSystemFont,'Segoe UI',sans-serif" font-size="15" font-weight="500" fill="#FFFFFF"><tspan x="50" dy="0">Len ~3 m</tspan></text>
  <rect x="448" y="16" width="176" height="45" rx="12" fill="#3C3C3E" aria-hidden="true"/>
  <circle cx="468" cy="39" r="8" fill="#B3C5B0" aria-hidden="true"/>
  <text x="482" y="44" font-family="-apple-system,BlinkMacSystemFont,'Segoe UI',sans-serif" font-size="15" font-weight="500" fill="#FFFFFF"><tspan x="482" dy="0">Hips ~1.5-1.7 m</tspan></text>
  <rect x="16" y="299" width="159" height="45" rx="12" fill="#3C3C3E" aria-hidden="true"/>
  <circle cx="36" cy="322" r="8" fill="#B3C5B0" aria-hidden="true"/>
  <text x="50" y="327" font-family="-apple-system,BlinkMacSystemFont,'Segoe UI',sans-serif" font-size="15" font-weight="500" fill="#FFFFFF"><tspan x="50" dy="0">Wt ~90-450 kg</tspan></text>
  <rect x="474" y="299" width="150" height="45" rx="12" fill="#3C3C3E" aria-hidden="true"/>
  <circle cx="494" cy="322" r="8" fill="#B3C5B0" aria-hidden="true"/>
  <text x="508" y="327" font-family="-apple-system,BlinkMacSystemFont,'Segoe UI',sans-serif" font-size="15" font-weight="500" fill="#FFFFFF"><tspan x="508" dy="0">67-66 mya</tspan></text>
  <rect x="244" y="153" width="152" height="54" rx="27" fill="#1C1C1E" stroke="#B3C5B0" stroke-width="3" aria-hidden="true"/>
  <text x="320" y="186" text-anchor="middle" font-family="-apple-system,BlinkMacSystemFont,'Segoe UI',sans-serif" font-size="17" font-weight="600" fill="#FFFFFF"><tspan x="320" dy="0">Stygimoloch</tspan></text>
</svg>
