<?xml version="1.0" encoding="UTF-8"?>
<svg viewBox="0 0 640 320" xmlns="http://www.w3.org/2000/svg" role="img" aria-labelledby="svg-pyramidlayers4-addea9-title svg-pyramidlayers4-addea9-desc">
  <title id="svg-pyramidlayers4-addea9-title">Layer Flip Platformer</title>
  <desc id="svg-pyramidlayers4-addea9-desc">Four key figures for Layer Flip Platformer</desc>
  <style>
    :root{--p:#5B73AE;--s:#3C3C3E;--ink:#3C3C3E;--onfill:#FFFFFF}
    text{font-family:-apple-system,BlinkMacSystemFont,'Segoe UI',sans-serif}
    .p{fill:var(--p)}.s{fill:var(--s)}.tab{fill:var(--onfill);stroke:var(--ink);stroke-width:1}
    .ink{fill:var(--ink)}.onfill{fill:var(--onfill)}
    @media (prefers-color-scheme: dark){.tab{stroke:var(--onfill)}}
  </style>
  <polygon class="p" points="240,16 400,16 424,84 216,84" aria-hidden="true"/>
  <text class="onfill" x="320" y="57" text-anchor="middle" font-size="16" font-weight="600">Play on this page</text>
  <rect class="tab" x="436" y="36" width="40" height="28" rx="6" aria-hidden="true"/>
  <text class="ink" x="456" y="56" text-anchor="middle" font-size="15" font-weight="600">1</text>
  <polygon class="s" points="213,92 427,92 451,160 189,160" aria-hidden="true"/>
  <text class="onfill" x="320" y="133" text-anchor="middle" font-size="16" font-weight="600">A/D run W jump</text>
  <rect class="tab" x="463" y="112" width="40" height="28" rx="6" aria-hidden="true"/>
  <text class="ink" x="483" y="132" text-anchor="middle" font-size="15" font-weight="600">2</text>
  <polygon class="p" points="186,168 454,168 478,236 162,236" aria-hidden="true"/>
  <text class="onfill" x="320" y="209" text-anchor="middle" font-size="16" font-weight="600">Space flips layer</text>
  <rect class="tab" x="490" y="188" width="40" height="28" rx="6" aria-hidden="true"/>
  <text class="ink" x="510" y="208" text-anchor="middle" font-size="15" font-weight="600">3</text>
  <polygon class="s" points="159,244 481,244 505,312 135,312" aria-hidden="true"/>
  <text class="onfill" x="320" y="285" text-anchor="middle" font-size="16" font-weight="600">Session progress</text>
  <rect class="tab" x="517" y="264" width="40" height="28" rx="6" aria-hidden="true"/>
  <text class="ink" x="537" y="284" text-anchor="middle" font-size="15" font-weight="600">4</text>
</svg>
